%TF.GenerationSoftware,KiCad,Pcbnew,9.0.2*%
%TF.CreationDate,2025-12-05T19:39:55-05:00*%
%TF.ProjectId,PCB,5043422e-6b69-4636-9164-5f7063625858,rev?*%
%TF.SameCoordinates,Original*%
%TF.FileFunction,Drillmap*%
%TF.FilePolarity,Positive*%
%FSLAX45Y45*%
G04 Gerber Fmt 4.5, Leading zero omitted, Abs format (unit mm)*
G04 Created by KiCad (PCBNEW 9.0.2) date 2025-12-05 19:39:55*
%MOMM*%
%LPD*%
G01*
G04 APERTURE LIST*
%ADD10C,0.050000*%
%ADD11C,0.200000*%
G04 APERTURE END LIST*
D10*
X5010000Y-4390000D02*
X12510000Y-4390000D01*
X12510000Y-12390000D01*
X5010000Y-12390000D01*
X5010000Y-4390000D01*
D11*
X5268277Y-12703984D02*
X5268277Y-12503984D01*
X5268277Y-12503984D02*
X5315896Y-12503984D01*
X5315896Y-12503984D02*
X5344467Y-12513508D01*
X5344467Y-12513508D02*
X5363515Y-12532555D01*
X5363515Y-12532555D02*
X5373039Y-12551603D01*
X5373039Y-12551603D02*
X5382563Y-12589698D01*
X5382563Y-12589698D02*
X5382563Y-12618269D01*
X5382563Y-12618269D02*
X5373039Y-12656365D01*
X5373039Y-12656365D02*
X5363515Y-12675412D01*
X5363515Y-12675412D02*
X5344467Y-12694460D01*
X5344467Y-12694460D02*
X5315896Y-12703984D01*
X5315896Y-12703984D02*
X5268277Y-12703984D01*
X5468277Y-12703984D02*
X5468277Y-12570650D01*
X5468277Y-12608746D02*
X5477801Y-12589698D01*
X5477801Y-12589698D02*
X5487324Y-12580174D01*
X5487324Y-12580174D02*
X5506372Y-12570650D01*
X5506372Y-12570650D02*
X5525420Y-12570650D01*
X5592086Y-12703984D02*
X5592086Y-12570650D01*
X5592086Y-12503984D02*
X5582563Y-12513508D01*
X5582563Y-12513508D02*
X5592086Y-12523031D01*
X5592086Y-12523031D02*
X5601610Y-12513508D01*
X5601610Y-12513508D02*
X5592086Y-12503984D01*
X5592086Y-12503984D02*
X5592086Y-12523031D01*
X5715896Y-12703984D02*
X5696848Y-12694460D01*
X5696848Y-12694460D02*
X5687324Y-12675412D01*
X5687324Y-12675412D02*
X5687324Y-12503984D01*
X5820658Y-12703984D02*
X5801610Y-12694460D01*
X5801610Y-12694460D02*
X5792086Y-12675412D01*
X5792086Y-12675412D02*
X5792086Y-12503984D01*
X6049229Y-12703984D02*
X6049229Y-12503984D01*
X6049229Y-12503984D02*
X6115896Y-12646841D01*
X6115896Y-12646841D02*
X6182562Y-12503984D01*
X6182562Y-12503984D02*
X6182562Y-12703984D01*
X6363515Y-12703984D02*
X6363515Y-12599222D01*
X6363515Y-12599222D02*
X6353991Y-12580174D01*
X6353991Y-12580174D02*
X6334943Y-12570650D01*
X6334943Y-12570650D02*
X6296848Y-12570650D01*
X6296848Y-12570650D02*
X6277801Y-12580174D01*
X6363515Y-12694460D02*
X6344467Y-12703984D01*
X6344467Y-12703984D02*
X6296848Y-12703984D01*
X6296848Y-12703984D02*
X6277801Y-12694460D01*
X6277801Y-12694460D02*
X6268277Y-12675412D01*
X6268277Y-12675412D02*
X6268277Y-12656365D01*
X6268277Y-12656365D02*
X6277801Y-12637317D01*
X6277801Y-12637317D02*
X6296848Y-12627793D01*
X6296848Y-12627793D02*
X6344467Y-12627793D01*
X6344467Y-12627793D02*
X6363515Y-12618269D01*
X6458753Y-12570650D02*
X6458753Y-12770650D01*
X6458753Y-12580174D02*
X6477801Y-12570650D01*
X6477801Y-12570650D02*
X6515896Y-12570650D01*
X6515896Y-12570650D02*
X6534943Y-12580174D01*
X6534943Y-12580174D02*
X6544467Y-12589698D01*
X6544467Y-12589698D02*
X6553991Y-12608746D01*
X6553991Y-12608746D02*
X6553991Y-12665888D01*
X6553991Y-12665888D02*
X6544467Y-12684936D01*
X6544467Y-12684936D02*
X6534943Y-12694460D01*
X6534943Y-12694460D02*
X6515896Y-12703984D01*
X6515896Y-12703984D02*
X6477801Y-12703984D01*
X6477801Y-12703984D02*
X6458753Y-12694460D01*
X6639705Y-12684936D02*
X6649229Y-12694460D01*
X6649229Y-12694460D02*
X6639705Y-12703984D01*
X6639705Y-12703984D02*
X6630182Y-12694460D01*
X6630182Y-12694460D02*
X6639705Y-12684936D01*
X6639705Y-12684936D02*
X6639705Y-12703984D01*
X6639705Y-12580174D02*
X6649229Y-12589698D01*
X6649229Y-12589698D02*
X6639705Y-12599222D01*
X6639705Y-12599222D02*
X6630182Y-12589698D01*
X6630182Y-12589698D02*
X6639705Y-12580174D01*
X6639705Y-12580174D02*
X6639705Y-12599222D01*
M02*
