%TF.GenerationSoftware,KiCad,Pcbnew,9.0.2*%
%TF.CreationDate,2025-12-05T19:39:55-05:00*%
%TF.ProjectId,PCB,5043422e-6b69-4636-9164-5f7063625858,rev?*%
%TF.SameCoordinates,Original*%
%TF.FileFunction,Drillmap*%
%TF.FilePolarity,Positive*%
%FSLAX45Y45*%
G04 Gerber Fmt 4.5, Leading zero omitted, Abs format (unit mm)*
G04 Created by KiCad (PCBNEW 9.0.2) date 2025-12-05 19:39:55*
%MOMM*%
%LPD*%
G01*
G04 APERTURE LIST*
%ADD10C,0.050000*%
%ADD11C,0.200000*%
%ADD12C,0.100000*%
%ADD13C,0.130000*%
G04 APERTURE END LIST*
D10*
X5010000Y-4390000D02*
X12510000Y-4390000D01*
X12510000Y-12390000D01*
X5010000Y-12390000D01*
X5010000Y-4390000D01*
D11*
D12*
X8936900Y-10762900D02*
X9013100Y-10839100D01*
X9013100Y-10762900D02*
X8936900Y-10839100D01*
X9190900Y-10762900D02*
X9267100Y-10839100D01*
X9267100Y-10762900D02*
X9190900Y-10839100D01*
X9444900Y-10762900D02*
X9521100Y-10839100D01*
X9521100Y-10762900D02*
X9444900Y-10839100D01*
X9698900Y-10762900D02*
X9775100Y-10839100D01*
X9775100Y-10762900D02*
X9698900Y-10839100D01*
X9952900Y-10762900D02*
X10029100Y-10839100D01*
X10029100Y-10762900D02*
X9952900Y-10839100D01*
X10206900Y-10762900D02*
X10283100Y-10839100D01*
X10283100Y-10762900D02*
X10206900Y-10839100D01*
X10460900Y-10762900D02*
X10537100Y-10839100D01*
X10537100Y-10762900D02*
X10460900Y-10839100D01*
X10714900Y-10762900D02*
X10791100Y-10839100D01*
X10791100Y-10762900D02*
X10714900Y-10839100D01*
X5790000Y-9245000D02*
G75*
G02*
X5710000Y-9245000I-40000J0D01*
G01*
X5710000Y-9245000D02*
G75*
G02*
X5790000Y-9245000I40000J0D01*
G01*
X5790000Y-10007000D02*
G75*
G02*
X5710000Y-10007000I-40000J0D01*
G01*
X5710000Y-10007000D02*
G75*
G02*
X5790000Y-10007000I40000J0D01*
G01*
X6311000Y-8351000D02*
G75*
G02*
X6231000Y-8351000I-40000J0D01*
G01*
X6231000Y-8351000D02*
G75*
G02*
X6311000Y-8351000I40000J0D01*
G01*
X6311000Y-9113000D02*
G75*
G02*
X6231000Y-9113000I-40000J0D01*
G01*
X6231000Y-9113000D02*
G75*
G02*
X6311000Y-9113000I40000J0D01*
G01*
X6866000Y-7940000D02*
G75*
G02*
X6786000Y-7940000I-40000J0D01*
G01*
X6786000Y-7940000D02*
G75*
G02*
X6866000Y-7940000I40000J0D01*
G01*
X6866000Y-8702000D02*
G75*
G02*
X6786000Y-8702000I-40000J0D01*
G01*
X6786000Y-8702000D02*
G75*
G02*
X6866000Y-8702000I40000J0D01*
G01*
X7558000Y-11930000D02*
G75*
G02*
X7478000Y-11930000I-40000J0D01*
G01*
X7478000Y-11930000D02*
G75*
G02*
X7558000Y-11930000I40000J0D01*
G01*
X7758000Y-11930000D02*
G75*
G02*
X7678000Y-11930000I-40000J0D01*
G01*
X7678000Y-11930000D02*
G75*
G02*
X7758000Y-11930000I40000J0D01*
G01*
X7958000Y-11930000D02*
G75*
G02*
X7878000Y-11930000I-40000J0D01*
G01*
X7878000Y-11930000D02*
G75*
G02*
X7958000Y-11930000I40000J0D01*
G01*
X8158000Y-11930000D02*
G75*
G02*
X8078000Y-11930000I-40000J0D01*
G01*
X8078000Y-11930000D02*
G75*
G02*
X8158000Y-11930000I40000J0D01*
G01*
X5969000Y-11504000D02*
X5969000Y-11604000D01*
X5919000Y-11554000D02*
X6019000Y-11554000D01*
X6729000Y-11504000D02*
X6729000Y-11604000D01*
X6679000Y-11554000D02*
X6779000Y-11554000D01*
X7717000Y-4606000D02*
X7717000Y-4706000D01*
X7667000Y-4656000D02*
X7767000Y-4656000D01*
X7717000Y-7146000D02*
X7717000Y-7246000D01*
X7667000Y-7196000D02*
X7767000Y-7196000D01*
X7930000Y-8272000D02*
X7930000Y-8372000D01*
X7880000Y-8322000D02*
X7980000Y-8322000D01*
X7930000Y-8526000D02*
X7930000Y-8626000D01*
X7880000Y-8576000D02*
X7980000Y-8576000D01*
X7930000Y-8780000D02*
X7930000Y-8880000D01*
X7880000Y-8830000D02*
X7980000Y-8830000D01*
X7930000Y-9034000D02*
X7930000Y-9134000D01*
X7880000Y-9084000D02*
X7980000Y-9084000D01*
X7930000Y-9288000D02*
X7930000Y-9388000D01*
X7880000Y-9338000D02*
X7980000Y-9338000D01*
X7930000Y-9542000D02*
X7930000Y-9642000D01*
X7880000Y-9592000D02*
X7980000Y-9592000D01*
X7930000Y-9796000D02*
X7930000Y-9896000D01*
X7880000Y-9846000D02*
X7980000Y-9846000D01*
X7971000Y-4606000D02*
X7971000Y-4706000D01*
X7921000Y-4656000D02*
X8021000Y-4656000D01*
X7971000Y-7146000D02*
X7971000Y-7246000D01*
X7921000Y-7196000D02*
X8021000Y-7196000D01*
X8225000Y-4606000D02*
X8225000Y-4706000D01*
X8175000Y-4656000D02*
X8275000Y-4656000D01*
X8225000Y-7146000D02*
X8225000Y-7246000D01*
X8175000Y-7196000D02*
X8275000Y-7196000D01*
X8479000Y-4606000D02*
X8479000Y-4706000D01*
X8429000Y-4656000D02*
X8529000Y-4656000D01*
X8479000Y-7146000D02*
X8479000Y-7246000D01*
X8429000Y-7196000D02*
X8529000Y-7196000D01*
X8733000Y-4606000D02*
X8733000Y-4706000D01*
X8683000Y-4656000D02*
X8783000Y-4656000D01*
X8733000Y-7146000D02*
X8733000Y-7246000D01*
X8683000Y-7196000D02*
X8783000Y-7196000D01*
X8987000Y-4606000D02*
X8987000Y-4706000D01*
X8937000Y-4656000D02*
X9037000Y-4656000D01*
X8987000Y-7146000D02*
X8987000Y-7246000D01*
X8937000Y-7196000D02*
X9037000Y-7196000D01*
X9142000Y-8437000D02*
X9142000Y-8537000D01*
X9092000Y-8487000D02*
X9192000Y-8487000D01*
X9142000Y-8691000D02*
X9142000Y-8791000D01*
X9092000Y-8741000D02*
X9192000Y-8741000D01*
X9142000Y-8945000D02*
X9142000Y-9045000D01*
X9092000Y-8995000D02*
X9192000Y-8995000D01*
X9142000Y-9199000D02*
X9142000Y-9299000D01*
X9092000Y-9249000D02*
X9192000Y-9249000D01*
X9241000Y-4606000D02*
X9241000Y-4706000D01*
X9191000Y-4656000D02*
X9291000Y-4656000D01*
X9241000Y-7146000D02*
X9241000Y-7246000D01*
X9191000Y-7196000D02*
X9291000Y-7196000D01*
X9495000Y-4606000D02*
X9495000Y-4706000D01*
X9445000Y-4656000D02*
X9545000Y-4656000D01*
X9495000Y-7146000D02*
X9495000Y-7246000D01*
X9445000Y-7196000D02*
X9545000Y-7196000D01*
X9749000Y-4606000D02*
X9749000Y-4706000D01*
X9699000Y-4656000D02*
X9799000Y-4656000D01*
X9749000Y-7146000D02*
X9749000Y-7246000D01*
X9699000Y-7196000D02*
X9799000Y-7196000D01*
X10003000Y-4606000D02*
X10003000Y-4706000D01*
X9953000Y-4656000D02*
X10053000Y-4656000D01*
X10003000Y-7146000D02*
X10003000Y-7246000D01*
X9953000Y-7196000D02*
X10053000Y-7196000D01*
X10257000Y-4606000D02*
X10257000Y-4706000D01*
X10207000Y-4656000D02*
X10307000Y-4656000D01*
X10257000Y-7146000D02*
X10257000Y-7246000D01*
X10207000Y-7196000D02*
X10307000Y-7196000D01*
X10511000Y-4606000D02*
X10511000Y-4706000D01*
X10461000Y-4656000D02*
X10561000Y-4656000D01*
X10511000Y-7146000D02*
X10511000Y-7246000D01*
X10461000Y-7196000D02*
X10561000Y-7196000D01*
X10765000Y-4606000D02*
X10765000Y-4706000D01*
X10715000Y-4656000D02*
X10815000Y-4656000D01*
X10765000Y-7146000D02*
X10765000Y-7246000D01*
X10715000Y-7196000D02*
X10815000Y-7196000D01*
X11019000Y-4606000D02*
X11019000Y-4706000D01*
X10969000Y-4656000D02*
X11069000Y-4656000D01*
X11019000Y-7146000D02*
X11019000Y-7246000D01*
X10969000Y-7196000D02*
X11069000Y-7196000D01*
X11273000Y-4606000D02*
X11273000Y-4706000D01*
X11223000Y-4656000D02*
X11323000Y-4656000D01*
X11273000Y-7146000D02*
X11273000Y-7246000D01*
X11223000Y-7196000D02*
X11323000Y-7196000D01*
X11357000Y-11234000D02*
X11357000Y-11334000D01*
X11307000Y-11284000D02*
X11407000Y-11284000D01*
X11357000Y-11488000D02*
X11357000Y-11588000D01*
X11307000Y-11538000D02*
X11407000Y-11538000D01*
X11357000Y-11742000D02*
X11357000Y-11842000D01*
X11307000Y-11792000D02*
X11407000Y-11792000D01*
X12107000Y-11234000D02*
X12107000Y-11334000D01*
X12057000Y-11284000D02*
X12157000Y-11284000D01*
X12107000Y-11488000D02*
X12107000Y-11588000D01*
X12057000Y-11538000D02*
X12157000Y-11538000D01*
X12107000Y-11742000D02*
X12107000Y-11842000D01*
X12057000Y-11792000D02*
X12157000Y-11792000D01*
D13*
X5884962Y-5671962D02*
X5884962Y-5580038D01*
X5793038Y-5580038D01*
X5793038Y-5671962D01*
X5884962Y-5671962D01*
X5884962Y-6179962D02*
X5884962Y-6088038D01*
X5793038Y-6088038D01*
X5793038Y-6179962D01*
X5884962Y-6179962D01*
D11*
X5268277Y-12703984D02*
X5268277Y-12503984D01*
X5268277Y-12503984D02*
X5315896Y-12503984D01*
X5315896Y-12503984D02*
X5344467Y-12513508D01*
X5344467Y-12513508D02*
X5363515Y-12532555D01*
X5363515Y-12532555D02*
X5373039Y-12551603D01*
X5373039Y-12551603D02*
X5382563Y-12589698D01*
X5382563Y-12589698D02*
X5382563Y-12618269D01*
X5382563Y-12618269D02*
X5373039Y-12656365D01*
X5373039Y-12656365D02*
X5363515Y-12675412D01*
X5363515Y-12675412D02*
X5344467Y-12694460D01*
X5344467Y-12694460D02*
X5315896Y-12703984D01*
X5315896Y-12703984D02*
X5268277Y-12703984D01*
X5468277Y-12703984D02*
X5468277Y-12570650D01*
X5468277Y-12608746D02*
X5477801Y-12589698D01*
X5477801Y-12589698D02*
X5487324Y-12580174D01*
X5487324Y-12580174D02*
X5506372Y-12570650D01*
X5506372Y-12570650D02*
X5525420Y-12570650D01*
X5592086Y-12703984D02*
X5592086Y-12570650D01*
X5592086Y-12503984D02*
X5582563Y-12513508D01*
X5582563Y-12513508D02*
X5592086Y-12523031D01*
X5592086Y-12523031D02*
X5601610Y-12513508D01*
X5601610Y-12513508D02*
X5592086Y-12503984D01*
X5592086Y-12503984D02*
X5592086Y-12523031D01*
X5715896Y-12703984D02*
X5696848Y-12694460D01*
X5696848Y-12694460D02*
X5687324Y-12675412D01*
X5687324Y-12675412D02*
X5687324Y-12503984D01*
X5820658Y-12703984D02*
X5801610Y-12694460D01*
X5801610Y-12694460D02*
X5792086Y-12675412D01*
X5792086Y-12675412D02*
X5792086Y-12503984D01*
X6049229Y-12703984D02*
X6049229Y-12503984D01*
X6049229Y-12503984D02*
X6115896Y-12646841D01*
X6115896Y-12646841D02*
X6182562Y-12503984D01*
X6182562Y-12503984D02*
X6182562Y-12703984D01*
X6363515Y-12703984D02*
X6363515Y-12599222D01*
X6363515Y-12599222D02*
X6353991Y-12580174D01*
X6353991Y-12580174D02*
X6334943Y-12570650D01*
X6334943Y-12570650D02*
X6296848Y-12570650D01*
X6296848Y-12570650D02*
X6277801Y-12580174D01*
X6363515Y-12694460D02*
X6344467Y-12703984D01*
X6344467Y-12703984D02*
X6296848Y-12703984D01*
X6296848Y-12703984D02*
X6277801Y-12694460D01*
X6277801Y-12694460D02*
X6268277Y-12675412D01*
X6268277Y-12675412D02*
X6268277Y-12656365D01*
X6268277Y-12656365D02*
X6277801Y-12637317D01*
X6277801Y-12637317D02*
X6296848Y-12627793D01*
X6296848Y-12627793D02*
X6344467Y-12627793D01*
X6344467Y-12627793D02*
X6363515Y-12618269D01*
X6458753Y-12570650D02*
X6458753Y-12770650D01*
X6458753Y-12580174D02*
X6477801Y-12570650D01*
X6477801Y-12570650D02*
X6515896Y-12570650D01*
X6515896Y-12570650D02*
X6534943Y-12580174D01*
X6534943Y-12580174D02*
X6544467Y-12589698D01*
X6544467Y-12589698D02*
X6553991Y-12608746D01*
X6553991Y-12608746D02*
X6553991Y-12665888D01*
X6553991Y-12665888D02*
X6544467Y-12684936D01*
X6544467Y-12684936D02*
X6534943Y-12694460D01*
X6534943Y-12694460D02*
X6515896Y-12703984D01*
X6515896Y-12703984D02*
X6477801Y-12703984D01*
X6477801Y-12703984D02*
X6458753Y-12694460D01*
X6639705Y-12684936D02*
X6649229Y-12694460D01*
X6649229Y-12694460D02*
X6639705Y-12703984D01*
X6639705Y-12703984D02*
X6630182Y-12694460D01*
X6630182Y-12694460D02*
X6639705Y-12684936D01*
X6639705Y-12684936D02*
X6639705Y-12703984D01*
X6639705Y-12580174D02*
X6649229Y-12589698D01*
X6649229Y-12589698D02*
X6639705Y-12599222D01*
X6639705Y-12599222D02*
X6630182Y-12589698D01*
X6630182Y-12589698D02*
X6639705Y-12580174D01*
X6639705Y-12580174D02*
X6639705Y-12599222D01*
D12*
X4931300Y-12994400D02*
X5007500Y-13070600D01*
X5007500Y-12994400D02*
X4931300Y-13070600D01*
D11*
X5306372Y-12923984D02*
X5325420Y-12923984D01*
X5325420Y-12923984D02*
X5344467Y-12933508D01*
X5344467Y-12933508D02*
X5353991Y-12943031D01*
X5353991Y-12943031D02*
X5363515Y-12962079D01*
X5363515Y-12962079D02*
X5373039Y-13000174D01*
X5373039Y-13000174D02*
X5373039Y-13047793D01*
X5373039Y-13047793D02*
X5363515Y-13085888D01*
X5363515Y-13085888D02*
X5353991Y-13104936D01*
X5353991Y-13104936D02*
X5344467Y-13114460D01*
X5344467Y-13114460D02*
X5325420Y-13123984D01*
X5325420Y-13123984D02*
X5306372Y-13123984D01*
X5306372Y-13123984D02*
X5287324Y-13114460D01*
X5287324Y-13114460D02*
X5277801Y-13104936D01*
X5277801Y-13104936D02*
X5268277Y-13085888D01*
X5268277Y-13085888D02*
X5258753Y-13047793D01*
X5258753Y-13047793D02*
X5258753Y-13000174D01*
X5258753Y-13000174D02*
X5268277Y-12962079D01*
X5268277Y-12962079D02*
X5277801Y-12943031D01*
X5277801Y-12943031D02*
X5287324Y-12933508D01*
X5287324Y-12933508D02*
X5306372Y-12923984D01*
X5458753Y-13104936D02*
X5468277Y-13114460D01*
X5468277Y-13114460D02*
X5458753Y-13123984D01*
X5458753Y-13123984D02*
X5449229Y-13114460D01*
X5449229Y-13114460D02*
X5458753Y-13104936D01*
X5458753Y-13104936D02*
X5458753Y-13123984D01*
X5534944Y-12923984D02*
X5668277Y-12923984D01*
X5668277Y-12923984D02*
X5582563Y-13123984D01*
X5830182Y-12923984D02*
X5792086Y-12923984D01*
X5792086Y-12923984D02*
X5773039Y-12933508D01*
X5773039Y-12933508D02*
X5763515Y-12943031D01*
X5763515Y-12943031D02*
X5744467Y-12971603D01*
X5744467Y-12971603D02*
X5734943Y-13009698D01*
X5734943Y-13009698D02*
X5734943Y-13085888D01*
X5734943Y-13085888D02*
X5744467Y-13104936D01*
X5744467Y-13104936D02*
X5753991Y-13114460D01*
X5753991Y-13114460D02*
X5773039Y-13123984D01*
X5773039Y-13123984D02*
X5811134Y-13123984D01*
X5811134Y-13123984D02*
X5830182Y-13114460D01*
X5830182Y-13114460D02*
X5839705Y-13104936D01*
X5839705Y-13104936D02*
X5849229Y-13085888D01*
X5849229Y-13085888D02*
X5849229Y-13038269D01*
X5849229Y-13038269D02*
X5839705Y-13019222D01*
X5839705Y-13019222D02*
X5830182Y-13009698D01*
X5830182Y-13009698D02*
X5811134Y-13000174D01*
X5811134Y-13000174D02*
X5773039Y-13000174D01*
X5773039Y-13000174D02*
X5753991Y-13009698D01*
X5753991Y-13009698D02*
X5744467Y-13019222D01*
X5744467Y-13019222D02*
X5734943Y-13038269D01*
X5925420Y-12943031D02*
X5934943Y-12933508D01*
X5934943Y-12933508D02*
X5953991Y-12923984D01*
X5953991Y-12923984D02*
X6001610Y-12923984D01*
X6001610Y-12923984D02*
X6020658Y-12933508D01*
X6020658Y-12933508D02*
X6030182Y-12943031D01*
X6030182Y-12943031D02*
X6039705Y-12962079D01*
X6039705Y-12962079D02*
X6039705Y-12981127D01*
X6039705Y-12981127D02*
X6030182Y-13009698D01*
X6030182Y-13009698D02*
X5915896Y-13123984D01*
X5915896Y-13123984D02*
X6039705Y-13123984D01*
X6125420Y-13123984D02*
X6125420Y-12990650D01*
X6125420Y-13009698D02*
X6134943Y-13000174D01*
X6134943Y-13000174D02*
X6153991Y-12990650D01*
X6153991Y-12990650D02*
X6182563Y-12990650D01*
X6182563Y-12990650D02*
X6201610Y-13000174D01*
X6201610Y-13000174D02*
X6211134Y-13019222D01*
X6211134Y-13019222D02*
X6211134Y-13123984D01*
X6211134Y-13019222D02*
X6220658Y-13000174D01*
X6220658Y-13000174D02*
X6239705Y-12990650D01*
X6239705Y-12990650D02*
X6268277Y-12990650D01*
X6268277Y-12990650D02*
X6287324Y-13000174D01*
X6287324Y-13000174D02*
X6296848Y-13019222D01*
X6296848Y-13019222D02*
X6296848Y-13123984D01*
X6392086Y-13123984D02*
X6392086Y-12990650D01*
X6392086Y-13009698D02*
X6401610Y-13000174D01*
X6401610Y-13000174D02*
X6420658Y-12990650D01*
X6420658Y-12990650D02*
X6449229Y-12990650D01*
X6449229Y-12990650D02*
X6468277Y-13000174D01*
X6468277Y-13000174D02*
X6477801Y-13019222D01*
X6477801Y-13019222D02*
X6477801Y-13123984D01*
X6477801Y-13019222D02*
X6487324Y-13000174D01*
X6487324Y-13000174D02*
X6506372Y-12990650D01*
X6506372Y-12990650D02*
X6534943Y-12990650D01*
X6534943Y-12990650D02*
X6553991Y-13000174D01*
X6553991Y-13000174D02*
X6563515Y-13019222D01*
X6563515Y-13019222D02*
X6563515Y-13123984D01*
X6953991Y-12914460D02*
X6782563Y-13171603D01*
X7211134Y-12923984D02*
X7230182Y-12923984D01*
X7230182Y-12923984D02*
X7249229Y-12933508D01*
X7249229Y-12933508D02*
X7258753Y-12943031D01*
X7258753Y-12943031D02*
X7268277Y-12962079D01*
X7268277Y-12962079D02*
X7277801Y-13000174D01*
X7277801Y-13000174D02*
X7277801Y-13047793D01*
X7277801Y-13047793D02*
X7268277Y-13085888D01*
X7268277Y-13085888D02*
X7258753Y-13104936D01*
X7258753Y-13104936D02*
X7249229Y-13114460D01*
X7249229Y-13114460D02*
X7230182Y-13123984D01*
X7230182Y-13123984D02*
X7211134Y-13123984D01*
X7211134Y-13123984D02*
X7192086Y-13114460D01*
X7192086Y-13114460D02*
X7182563Y-13104936D01*
X7182563Y-13104936D02*
X7173039Y-13085888D01*
X7173039Y-13085888D02*
X7163515Y-13047793D01*
X7163515Y-13047793D02*
X7163515Y-13000174D01*
X7163515Y-13000174D02*
X7173039Y-12962079D01*
X7173039Y-12962079D02*
X7182563Y-12943031D01*
X7182563Y-12943031D02*
X7192086Y-12933508D01*
X7192086Y-12933508D02*
X7211134Y-12923984D01*
X7363515Y-13104936D02*
X7373039Y-13114460D01*
X7373039Y-13114460D02*
X7363515Y-13123984D01*
X7363515Y-13123984D02*
X7353991Y-13114460D01*
X7353991Y-13114460D02*
X7363515Y-13104936D01*
X7363515Y-13104936D02*
X7363515Y-13123984D01*
X7496848Y-12923984D02*
X7515896Y-12923984D01*
X7515896Y-12923984D02*
X7534944Y-12933508D01*
X7534944Y-12933508D02*
X7544467Y-12943031D01*
X7544467Y-12943031D02*
X7553991Y-12962079D01*
X7553991Y-12962079D02*
X7563515Y-13000174D01*
X7563515Y-13000174D02*
X7563515Y-13047793D01*
X7563515Y-13047793D02*
X7553991Y-13085888D01*
X7553991Y-13085888D02*
X7544467Y-13104936D01*
X7544467Y-13104936D02*
X7534944Y-13114460D01*
X7534944Y-13114460D02*
X7515896Y-13123984D01*
X7515896Y-13123984D02*
X7496848Y-13123984D01*
X7496848Y-13123984D02*
X7477801Y-13114460D01*
X7477801Y-13114460D02*
X7468277Y-13104936D01*
X7468277Y-13104936D02*
X7458753Y-13085888D01*
X7458753Y-13085888D02*
X7449229Y-13047793D01*
X7449229Y-13047793D02*
X7449229Y-13000174D01*
X7449229Y-13000174D02*
X7458753Y-12962079D01*
X7458753Y-12962079D02*
X7468277Y-12943031D01*
X7468277Y-12943031D02*
X7477801Y-12933508D01*
X7477801Y-12933508D02*
X7496848Y-12923984D01*
X7630182Y-12923984D02*
X7753991Y-12923984D01*
X7753991Y-12923984D02*
X7687325Y-13000174D01*
X7687325Y-13000174D02*
X7715896Y-13000174D01*
X7715896Y-13000174D02*
X7734944Y-13009698D01*
X7734944Y-13009698D02*
X7744467Y-13019222D01*
X7744467Y-13019222D02*
X7753991Y-13038269D01*
X7753991Y-13038269D02*
X7753991Y-13085888D01*
X7753991Y-13085888D02*
X7744467Y-13104936D01*
X7744467Y-13104936D02*
X7734944Y-13114460D01*
X7734944Y-13114460D02*
X7715896Y-13123984D01*
X7715896Y-13123984D02*
X7658753Y-13123984D01*
X7658753Y-13123984D02*
X7639706Y-13114460D01*
X7639706Y-13114460D02*
X7630182Y-13104936D01*
X7877801Y-12923984D02*
X7896848Y-12923984D01*
X7896848Y-12923984D02*
X7915896Y-12933508D01*
X7915896Y-12933508D02*
X7925420Y-12943031D01*
X7925420Y-12943031D02*
X7934944Y-12962079D01*
X7934944Y-12962079D02*
X7944467Y-13000174D01*
X7944467Y-13000174D02*
X7944467Y-13047793D01*
X7944467Y-13047793D02*
X7934944Y-13085888D01*
X7934944Y-13085888D02*
X7925420Y-13104936D01*
X7925420Y-13104936D02*
X7915896Y-13114460D01*
X7915896Y-13114460D02*
X7896848Y-13123984D01*
X7896848Y-13123984D02*
X7877801Y-13123984D01*
X7877801Y-13123984D02*
X7858753Y-13114460D01*
X7858753Y-13114460D02*
X7849229Y-13104936D01*
X7849229Y-13104936D02*
X7839706Y-13085888D01*
X7839706Y-13085888D02*
X7830182Y-13047793D01*
X7830182Y-13047793D02*
X7830182Y-13000174D01*
X7830182Y-13000174D02*
X7839706Y-12962079D01*
X7839706Y-12962079D02*
X7849229Y-12943031D01*
X7849229Y-12943031D02*
X7858753Y-12933508D01*
X7858753Y-12933508D02*
X7877801Y-12923984D01*
X8068277Y-12923984D02*
X8087325Y-12923984D01*
X8087325Y-12923984D02*
X8106372Y-12933508D01*
X8106372Y-12933508D02*
X8115896Y-12943031D01*
X8115896Y-12943031D02*
X8125420Y-12962079D01*
X8125420Y-12962079D02*
X8134944Y-13000174D01*
X8134944Y-13000174D02*
X8134944Y-13047793D01*
X8134944Y-13047793D02*
X8125420Y-13085888D01*
X8125420Y-13085888D02*
X8115896Y-13104936D01*
X8115896Y-13104936D02*
X8106372Y-13114460D01*
X8106372Y-13114460D02*
X8087325Y-13123984D01*
X8087325Y-13123984D02*
X8068277Y-13123984D01*
X8068277Y-13123984D02*
X8049229Y-13114460D01*
X8049229Y-13114460D02*
X8039706Y-13104936D01*
X8039706Y-13104936D02*
X8030182Y-13085888D01*
X8030182Y-13085888D02*
X8020658Y-13047793D01*
X8020658Y-13047793D02*
X8020658Y-13000174D01*
X8020658Y-13000174D02*
X8030182Y-12962079D01*
X8030182Y-12962079D02*
X8039706Y-12943031D01*
X8039706Y-12943031D02*
X8049229Y-12933508D01*
X8049229Y-12933508D02*
X8068277Y-12923984D01*
X8211134Y-12923984D02*
X8211134Y-12962079D01*
X8287325Y-12923984D02*
X8287325Y-12962079D01*
X8582563Y-13200174D02*
X8573039Y-13190650D01*
X8573039Y-13190650D02*
X8553991Y-13162079D01*
X8553991Y-13162079D02*
X8544468Y-13143031D01*
X8544468Y-13143031D02*
X8534944Y-13114460D01*
X8534944Y-13114460D02*
X8525420Y-13066841D01*
X8525420Y-13066841D02*
X8525420Y-13028746D01*
X8525420Y-13028746D02*
X8534944Y-12981127D01*
X8534944Y-12981127D02*
X8544468Y-12952555D01*
X8544468Y-12952555D02*
X8553991Y-12933508D01*
X8553991Y-12933508D02*
X8573039Y-12904936D01*
X8573039Y-12904936D02*
X8582563Y-12895412D01*
X8687325Y-13009698D02*
X8668277Y-13000174D01*
X8668277Y-13000174D02*
X8658753Y-12990650D01*
X8658753Y-12990650D02*
X8649230Y-12971603D01*
X8649230Y-12971603D02*
X8649230Y-12962079D01*
X8649230Y-12962079D02*
X8658753Y-12943031D01*
X8658753Y-12943031D02*
X8668277Y-12933508D01*
X8668277Y-12933508D02*
X8687325Y-12923984D01*
X8687325Y-12923984D02*
X8725420Y-12923984D01*
X8725420Y-12923984D02*
X8744468Y-12933508D01*
X8744468Y-12933508D02*
X8753991Y-12943031D01*
X8753991Y-12943031D02*
X8763515Y-12962079D01*
X8763515Y-12962079D02*
X8763515Y-12971603D01*
X8763515Y-12971603D02*
X8753991Y-12990650D01*
X8753991Y-12990650D02*
X8744468Y-13000174D01*
X8744468Y-13000174D02*
X8725420Y-13009698D01*
X8725420Y-13009698D02*
X8687325Y-13009698D01*
X8687325Y-13009698D02*
X8668277Y-13019222D01*
X8668277Y-13019222D02*
X8658753Y-13028746D01*
X8658753Y-13028746D02*
X8649230Y-13047793D01*
X8649230Y-13047793D02*
X8649230Y-13085888D01*
X8649230Y-13085888D02*
X8658753Y-13104936D01*
X8658753Y-13104936D02*
X8668277Y-13114460D01*
X8668277Y-13114460D02*
X8687325Y-13123984D01*
X8687325Y-13123984D02*
X8725420Y-13123984D01*
X8725420Y-13123984D02*
X8744468Y-13114460D01*
X8744468Y-13114460D02*
X8753991Y-13104936D01*
X8753991Y-13104936D02*
X8763515Y-13085888D01*
X8763515Y-13085888D02*
X8763515Y-13047793D01*
X8763515Y-13047793D02*
X8753991Y-13028746D01*
X8753991Y-13028746D02*
X8744468Y-13019222D01*
X8744468Y-13019222D02*
X8725420Y-13009698D01*
X9001611Y-13123984D02*
X9001611Y-12923984D01*
X9087325Y-13123984D02*
X9087325Y-13019222D01*
X9087325Y-13019222D02*
X9077801Y-13000174D01*
X9077801Y-13000174D02*
X9058753Y-12990650D01*
X9058753Y-12990650D02*
X9030182Y-12990650D01*
X9030182Y-12990650D02*
X9011134Y-13000174D01*
X9011134Y-13000174D02*
X9001611Y-13009698D01*
X9211134Y-13123984D02*
X9192087Y-13114460D01*
X9192087Y-13114460D02*
X9182563Y-13104936D01*
X9182563Y-13104936D02*
X9173039Y-13085888D01*
X9173039Y-13085888D02*
X9173039Y-13028746D01*
X9173039Y-13028746D02*
X9182563Y-13009698D01*
X9182563Y-13009698D02*
X9192087Y-13000174D01*
X9192087Y-13000174D02*
X9211134Y-12990650D01*
X9211134Y-12990650D02*
X9239706Y-12990650D01*
X9239706Y-12990650D02*
X9258753Y-13000174D01*
X9258753Y-13000174D02*
X9268277Y-13009698D01*
X9268277Y-13009698D02*
X9277801Y-13028746D01*
X9277801Y-13028746D02*
X9277801Y-13085888D01*
X9277801Y-13085888D02*
X9268277Y-13104936D01*
X9268277Y-13104936D02*
X9258753Y-13114460D01*
X9258753Y-13114460D02*
X9239706Y-13123984D01*
X9239706Y-13123984D02*
X9211134Y-13123984D01*
X9392087Y-13123984D02*
X9373039Y-13114460D01*
X9373039Y-13114460D02*
X9363515Y-13095412D01*
X9363515Y-13095412D02*
X9363515Y-12923984D01*
X9544468Y-13114460D02*
X9525420Y-13123984D01*
X9525420Y-13123984D02*
X9487325Y-13123984D01*
X9487325Y-13123984D02*
X9468277Y-13114460D01*
X9468277Y-13114460D02*
X9458753Y-13095412D01*
X9458753Y-13095412D02*
X9458753Y-13019222D01*
X9458753Y-13019222D02*
X9468277Y-13000174D01*
X9468277Y-13000174D02*
X9487325Y-12990650D01*
X9487325Y-12990650D02*
X9525420Y-12990650D01*
X9525420Y-12990650D02*
X9544468Y-13000174D01*
X9544468Y-13000174D02*
X9553992Y-13019222D01*
X9553992Y-13019222D02*
X9553992Y-13038269D01*
X9553992Y-13038269D02*
X9458753Y-13057317D01*
X9630182Y-13114460D02*
X9649230Y-13123984D01*
X9649230Y-13123984D02*
X9687325Y-13123984D01*
X9687325Y-13123984D02*
X9706373Y-13114460D01*
X9706373Y-13114460D02*
X9715896Y-13095412D01*
X9715896Y-13095412D02*
X9715896Y-13085888D01*
X9715896Y-13085888D02*
X9706373Y-13066841D01*
X9706373Y-13066841D02*
X9687325Y-13057317D01*
X9687325Y-13057317D02*
X9658753Y-13057317D01*
X9658753Y-13057317D02*
X9639706Y-13047793D01*
X9639706Y-13047793D02*
X9630182Y-13028746D01*
X9630182Y-13028746D02*
X9630182Y-13019222D01*
X9630182Y-13019222D02*
X9639706Y-13000174D01*
X9639706Y-13000174D02*
X9658753Y-12990650D01*
X9658753Y-12990650D02*
X9687325Y-12990650D01*
X9687325Y-12990650D02*
X9706373Y-13000174D01*
X9782563Y-13200174D02*
X9792087Y-13190650D01*
X9792087Y-13190650D02*
X9811134Y-13162079D01*
X9811134Y-13162079D02*
X9820658Y-13143031D01*
X9820658Y-13143031D02*
X9830182Y-13114460D01*
X9830182Y-13114460D02*
X9839706Y-13066841D01*
X9839706Y-13066841D02*
X9839706Y-13028746D01*
X9839706Y-13028746D02*
X9830182Y-12981127D01*
X9830182Y-12981127D02*
X9820658Y-12952555D01*
X9820658Y-12952555D02*
X9811134Y-12933508D01*
X9811134Y-12933508D02*
X9792087Y-12904936D01*
X9792087Y-12904936D02*
X9782563Y-12895412D01*
D12*
X5007500Y-13296500D02*
G75*
G02*
X4927500Y-13296500I-40000J0D01*
G01*
X4927500Y-13296500D02*
G75*
G02*
X5007500Y-13296500I40000J0D01*
G01*
D11*
X5306372Y-13187984D02*
X5325420Y-13187984D01*
X5325420Y-13187984D02*
X5344467Y-13197508D01*
X5344467Y-13197508D02*
X5353991Y-13207031D01*
X5353991Y-13207031D02*
X5363515Y-13226079D01*
X5363515Y-13226079D02*
X5373039Y-13264174D01*
X5373039Y-13264174D02*
X5373039Y-13311793D01*
X5373039Y-13311793D02*
X5363515Y-13349888D01*
X5363515Y-13349888D02*
X5353991Y-13368936D01*
X5353991Y-13368936D02*
X5344467Y-13378460D01*
X5344467Y-13378460D02*
X5325420Y-13387984D01*
X5325420Y-13387984D02*
X5306372Y-13387984D01*
X5306372Y-13387984D02*
X5287324Y-13378460D01*
X5287324Y-13378460D02*
X5277801Y-13368936D01*
X5277801Y-13368936D02*
X5268277Y-13349888D01*
X5268277Y-13349888D02*
X5258753Y-13311793D01*
X5258753Y-13311793D02*
X5258753Y-13264174D01*
X5258753Y-13264174D02*
X5268277Y-13226079D01*
X5268277Y-13226079D02*
X5277801Y-13207031D01*
X5277801Y-13207031D02*
X5287324Y-13197508D01*
X5287324Y-13197508D02*
X5306372Y-13187984D01*
X5458753Y-13368936D02*
X5468277Y-13378460D01*
X5468277Y-13378460D02*
X5458753Y-13387984D01*
X5458753Y-13387984D02*
X5449229Y-13378460D01*
X5449229Y-13378460D02*
X5458753Y-13368936D01*
X5458753Y-13368936D02*
X5458753Y-13387984D01*
X5582563Y-13273698D02*
X5563515Y-13264174D01*
X5563515Y-13264174D02*
X5553991Y-13254650D01*
X5553991Y-13254650D02*
X5544467Y-13235603D01*
X5544467Y-13235603D02*
X5544467Y-13226079D01*
X5544467Y-13226079D02*
X5553991Y-13207031D01*
X5553991Y-13207031D02*
X5563515Y-13197508D01*
X5563515Y-13197508D02*
X5582563Y-13187984D01*
X5582563Y-13187984D02*
X5620658Y-13187984D01*
X5620658Y-13187984D02*
X5639705Y-13197508D01*
X5639705Y-13197508D02*
X5649229Y-13207031D01*
X5649229Y-13207031D02*
X5658753Y-13226079D01*
X5658753Y-13226079D02*
X5658753Y-13235603D01*
X5658753Y-13235603D02*
X5649229Y-13254650D01*
X5649229Y-13254650D02*
X5639705Y-13264174D01*
X5639705Y-13264174D02*
X5620658Y-13273698D01*
X5620658Y-13273698D02*
X5582563Y-13273698D01*
X5582563Y-13273698D02*
X5563515Y-13283222D01*
X5563515Y-13283222D02*
X5553991Y-13292746D01*
X5553991Y-13292746D02*
X5544467Y-13311793D01*
X5544467Y-13311793D02*
X5544467Y-13349888D01*
X5544467Y-13349888D02*
X5553991Y-13368936D01*
X5553991Y-13368936D02*
X5563515Y-13378460D01*
X5563515Y-13378460D02*
X5582563Y-13387984D01*
X5582563Y-13387984D02*
X5620658Y-13387984D01*
X5620658Y-13387984D02*
X5639705Y-13378460D01*
X5639705Y-13378460D02*
X5649229Y-13368936D01*
X5649229Y-13368936D02*
X5658753Y-13349888D01*
X5658753Y-13349888D02*
X5658753Y-13311793D01*
X5658753Y-13311793D02*
X5649229Y-13292746D01*
X5649229Y-13292746D02*
X5639705Y-13283222D01*
X5639705Y-13283222D02*
X5620658Y-13273698D01*
X5782562Y-13187984D02*
X5801610Y-13187984D01*
X5801610Y-13187984D02*
X5820658Y-13197508D01*
X5820658Y-13197508D02*
X5830182Y-13207031D01*
X5830182Y-13207031D02*
X5839705Y-13226079D01*
X5839705Y-13226079D02*
X5849229Y-13264174D01*
X5849229Y-13264174D02*
X5849229Y-13311793D01*
X5849229Y-13311793D02*
X5839705Y-13349888D01*
X5839705Y-13349888D02*
X5830182Y-13368936D01*
X5830182Y-13368936D02*
X5820658Y-13378460D01*
X5820658Y-13378460D02*
X5801610Y-13387984D01*
X5801610Y-13387984D02*
X5782562Y-13387984D01*
X5782562Y-13387984D02*
X5763515Y-13378460D01*
X5763515Y-13378460D02*
X5753991Y-13368936D01*
X5753991Y-13368936D02*
X5744467Y-13349888D01*
X5744467Y-13349888D02*
X5734943Y-13311793D01*
X5734943Y-13311793D02*
X5734943Y-13264174D01*
X5734943Y-13264174D02*
X5744467Y-13226079D01*
X5744467Y-13226079D02*
X5753991Y-13207031D01*
X5753991Y-13207031D02*
X5763515Y-13197508D01*
X5763515Y-13197508D02*
X5782562Y-13187984D01*
X5973039Y-13187984D02*
X5992086Y-13187984D01*
X5992086Y-13187984D02*
X6011134Y-13197508D01*
X6011134Y-13197508D02*
X6020658Y-13207031D01*
X6020658Y-13207031D02*
X6030182Y-13226079D01*
X6030182Y-13226079D02*
X6039705Y-13264174D01*
X6039705Y-13264174D02*
X6039705Y-13311793D01*
X6039705Y-13311793D02*
X6030182Y-13349888D01*
X6030182Y-13349888D02*
X6020658Y-13368936D01*
X6020658Y-13368936D02*
X6011134Y-13378460D01*
X6011134Y-13378460D02*
X5992086Y-13387984D01*
X5992086Y-13387984D02*
X5973039Y-13387984D01*
X5973039Y-13387984D02*
X5953991Y-13378460D01*
X5953991Y-13378460D02*
X5944467Y-13368936D01*
X5944467Y-13368936D02*
X5934943Y-13349888D01*
X5934943Y-13349888D02*
X5925420Y-13311793D01*
X5925420Y-13311793D02*
X5925420Y-13264174D01*
X5925420Y-13264174D02*
X5934943Y-13226079D01*
X5934943Y-13226079D02*
X5944467Y-13207031D01*
X5944467Y-13207031D02*
X5953991Y-13197508D01*
X5953991Y-13197508D02*
X5973039Y-13187984D01*
X6125420Y-13387984D02*
X6125420Y-13254650D01*
X6125420Y-13273698D02*
X6134943Y-13264174D01*
X6134943Y-13264174D02*
X6153991Y-13254650D01*
X6153991Y-13254650D02*
X6182563Y-13254650D01*
X6182563Y-13254650D02*
X6201610Y-13264174D01*
X6201610Y-13264174D02*
X6211134Y-13283222D01*
X6211134Y-13283222D02*
X6211134Y-13387984D01*
X6211134Y-13283222D02*
X6220658Y-13264174D01*
X6220658Y-13264174D02*
X6239705Y-13254650D01*
X6239705Y-13254650D02*
X6268277Y-13254650D01*
X6268277Y-13254650D02*
X6287324Y-13264174D01*
X6287324Y-13264174D02*
X6296848Y-13283222D01*
X6296848Y-13283222D02*
X6296848Y-13387984D01*
X6392086Y-13387984D02*
X6392086Y-13254650D01*
X6392086Y-13273698D02*
X6401610Y-13264174D01*
X6401610Y-13264174D02*
X6420658Y-13254650D01*
X6420658Y-13254650D02*
X6449229Y-13254650D01*
X6449229Y-13254650D02*
X6468277Y-13264174D01*
X6468277Y-13264174D02*
X6477801Y-13283222D01*
X6477801Y-13283222D02*
X6477801Y-13387984D01*
X6477801Y-13283222D02*
X6487324Y-13264174D01*
X6487324Y-13264174D02*
X6506372Y-13254650D01*
X6506372Y-13254650D02*
X6534943Y-13254650D01*
X6534943Y-13254650D02*
X6553991Y-13264174D01*
X6553991Y-13264174D02*
X6563515Y-13283222D01*
X6563515Y-13283222D02*
X6563515Y-13387984D01*
X6953991Y-13178460D02*
X6782563Y-13435603D01*
X7211134Y-13187984D02*
X7230182Y-13187984D01*
X7230182Y-13187984D02*
X7249229Y-13197508D01*
X7249229Y-13197508D02*
X7258753Y-13207031D01*
X7258753Y-13207031D02*
X7268277Y-13226079D01*
X7268277Y-13226079D02*
X7277801Y-13264174D01*
X7277801Y-13264174D02*
X7277801Y-13311793D01*
X7277801Y-13311793D02*
X7268277Y-13349888D01*
X7268277Y-13349888D02*
X7258753Y-13368936D01*
X7258753Y-13368936D02*
X7249229Y-13378460D01*
X7249229Y-13378460D02*
X7230182Y-13387984D01*
X7230182Y-13387984D02*
X7211134Y-13387984D01*
X7211134Y-13387984D02*
X7192086Y-13378460D01*
X7192086Y-13378460D02*
X7182563Y-13368936D01*
X7182563Y-13368936D02*
X7173039Y-13349888D01*
X7173039Y-13349888D02*
X7163515Y-13311793D01*
X7163515Y-13311793D02*
X7163515Y-13264174D01*
X7163515Y-13264174D02*
X7173039Y-13226079D01*
X7173039Y-13226079D02*
X7182563Y-13207031D01*
X7182563Y-13207031D02*
X7192086Y-13197508D01*
X7192086Y-13197508D02*
X7211134Y-13187984D01*
X7363515Y-13368936D02*
X7373039Y-13378460D01*
X7373039Y-13378460D02*
X7363515Y-13387984D01*
X7363515Y-13387984D02*
X7353991Y-13378460D01*
X7353991Y-13378460D02*
X7363515Y-13368936D01*
X7363515Y-13368936D02*
X7363515Y-13387984D01*
X7496848Y-13187984D02*
X7515896Y-13187984D01*
X7515896Y-13187984D02*
X7534944Y-13197508D01*
X7534944Y-13197508D02*
X7544467Y-13207031D01*
X7544467Y-13207031D02*
X7553991Y-13226079D01*
X7553991Y-13226079D02*
X7563515Y-13264174D01*
X7563515Y-13264174D02*
X7563515Y-13311793D01*
X7563515Y-13311793D02*
X7553991Y-13349888D01*
X7553991Y-13349888D02*
X7544467Y-13368936D01*
X7544467Y-13368936D02*
X7534944Y-13378460D01*
X7534944Y-13378460D02*
X7515896Y-13387984D01*
X7515896Y-13387984D02*
X7496848Y-13387984D01*
X7496848Y-13387984D02*
X7477801Y-13378460D01*
X7477801Y-13378460D02*
X7468277Y-13368936D01*
X7468277Y-13368936D02*
X7458753Y-13349888D01*
X7458753Y-13349888D02*
X7449229Y-13311793D01*
X7449229Y-13311793D02*
X7449229Y-13264174D01*
X7449229Y-13264174D02*
X7458753Y-13226079D01*
X7458753Y-13226079D02*
X7468277Y-13207031D01*
X7468277Y-13207031D02*
X7477801Y-13197508D01*
X7477801Y-13197508D02*
X7496848Y-13187984D01*
X7630182Y-13187984D02*
X7753991Y-13187984D01*
X7753991Y-13187984D02*
X7687325Y-13264174D01*
X7687325Y-13264174D02*
X7715896Y-13264174D01*
X7715896Y-13264174D02*
X7734944Y-13273698D01*
X7734944Y-13273698D02*
X7744467Y-13283222D01*
X7744467Y-13283222D02*
X7753991Y-13302269D01*
X7753991Y-13302269D02*
X7753991Y-13349888D01*
X7753991Y-13349888D02*
X7744467Y-13368936D01*
X7744467Y-13368936D02*
X7734944Y-13378460D01*
X7734944Y-13378460D02*
X7715896Y-13387984D01*
X7715896Y-13387984D02*
X7658753Y-13387984D01*
X7658753Y-13387984D02*
X7639706Y-13378460D01*
X7639706Y-13378460D02*
X7630182Y-13368936D01*
X7944467Y-13387984D02*
X7830182Y-13387984D01*
X7887325Y-13387984D02*
X7887325Y-13187984D01*
X7887325Y-13187984D02*
X7868277Y-13216555D01*
X7868277Y-13216555D02*
X7849229Y-13235603D01*
X7849229Y-13235603D02*
X7830182Y-13245127D01*
X8125420Y-13187984D02*
X8030182Y-13187984D01*
X8030182Y-13187984D02*
X8020658Y-13283222D01*
X8020658Y-13283222D02*
X8030182Y-13273698D01*
X8030182Y-13273698D02*
X8049229Y-13264174D01*
X8049229Y-13264174D02*
X8096848Y-13264174D01*
X8096848Y-13264174D02*
X8115896Y-13273698D01*
X8115896Y-13273698D02*
X8125420Y-13283222D01*
X8125420Y-13283222D02*
X8134944Y-13302269D01*
X8134944Y-13302269D02*
X8134944Y-13349888D01*
X8134944Y-13349888D02*
X8125420Y-13368936D01*
X8125420Y-13368936D02*
X8115896Y-13378460D01*
X8115896Y-13378460D02*
X8096848Y-13387984D01*
X8096848Y-13387984D02*
X8049229Y-13387984D01*
X8049229Y-13387984D02*
X8030182Y-13378460D01*
X8030182Y-13378460D02*
X8020658Y-13368936D01*
X8211134Y-13187984D02*
X8211134Y-13226079D01*
X8287325Y-13187984D02*
X8287325Y-13226079D01*
X8582563Y-13464174D02*
X8573039Y-13454650D01*
X8573039Y-13454650D02*
X8553991Y-13426079D01*
X8553991Y-13426079D02*
X8544468Y-13407031D01*
X8544468Y-13407031D02*
X8534944Y-13378460D01*
X8534944Y-13378460D02*
X8525420Y-13330841D01*
X8525420Y-13330841D02*
X8525420Y-13292746D01*
X8525420Y-13292746D02*
X8534944Y-13245127D01*
X8534944Y-13245127D02*
X8544468Y-13216555D01*
X8544468Y-13216555D02*
X8553991Y-13197508D01*
X8553991Y-13197508D02*
X8573039Y-13168936D01*
X8573039Y-13168936D02*
X8582563Y-13159412D01*
X8763515Y-13387984D02*
X8649230Y-13387984D01*
X8706372Y-13387984D02*
X8706372Y-13187984D01*
X8706372Y-13187984D02*
X8687325Y-13216555D01*
X8687325Y-13216555D02*
X8668277Y-13235603D01*
X8668277Y-13235603D02*
X8649230Y-13245127D01*
X8887325Y-13187984D02*
X8906372Y-13187984D01*
X8906372Y-13187984D02*
X8925420Y-13197508D01*
X8925420Y-13197508D02*
X8934944Y-13207031D01*
X8934944Y-13207031D02*
X8944468Y-13226079D01*
X8944468Y-13226079D02*
X8953991Y-13264174D01*
X8953991Y-13264174D02*
X8953991Y-13311793D01*
X8953991Y-13311793D02*
X8944468Y-13349888D01*
X8944468Y-13349888D02*
X8934944Y-13368936D01*
X8934944Y-13368936D02*
X8925420Y-13378460D01*
X8925420Y-13378460D02*
X8906372Y-13387984D01*
X8906372Y-13387984D02*
X8887325Y-13387984D01*
X8887325Y-13387984D02*
X8868277Y-13378460D01*
X8868277Y-13378460D02*
X8858753Y-13368936D01*
X8858753Y-13368936D02*
X8849230Y-13349888D01*
X8849230Y-13349888D02*
X8839706Y-13311793D01*
X8839706Y-13311793D02*
X8839706Y-13264174D01*
X8839706Y-13264174D02*
X8849230Y-13226079D01*
X8849230Y-13226079D02*
X8858753Y-13207031D01*
X8858753Y-13207031D02*
X8868277Y-13197508D01*
X8868277Y-13197508D02*
X8887325Y-13187984D01*
X9192087Y-13387984D02*
X9192087Y-13187984D01*
X9277801Y-13387984D02*
X9277801Y-13283222D01*
X9277801Y-13283222D02*
X9268277Y-13264174D01*
X9268277Y-13264174D02*
X9249230Y-13254650D01*
X9249230Y-13254650D02*
X9220658Y-13254650D01*
X9220658Y-13254650D02*
X9201611Y-13264174D01*
X9201611Y-13264174D02*
X9192087Y-13273698D01*
X9401611Y-13387984D02*
X9382563Y-13378460D01*
X9382563Y-13378460D02*
X9373039Y-13368936D01*
X9373039Y-13368936D02*
X9363515Y-13349888D01*
X9363515Y-13349888D02*
X9363515Y-13292746D01*
X9363515Y-13292746D02*
X9373039Y-13273698D01*
X9373039Y-13273698D02*
X9382563Y-13264174D01*
X9382563Y-13264174D02*
X9401611Y-13254650D01*
X9401611Y-13254650D02*
X9430182Y-13254650D01*
X9430182Y-13254650D02*
X9449230Y-13264174D01*
X9449230Y-13264174D02*
X9458753Y-13273698D01*
X9458753Y-13273698D02*
X9468277Y-13292746D01*
X9468277Y-13292746D02*
X9468277Y-13349888D01*
X9468277Y-13349888D02*
X9458753Y-13368936D01*
X9458753Y-13368936D02*
X9449230Y-13378460D01*
X9449230Y-13378460D02*
X9430182Y-13387984D01*
X9430182Y-13387984D02*
X9401611Y-13387984D01*
X9582563Y-13387984D02*
X9563515Y-13378460D01*
X9563515Y-13378460D02*
X9553992Y-13359412D01*
X9553992Y-13359412D02*
X9553992Y-13187984D01*
X9734944Y-13378460D02*
X9715896Y-13387984D01*
X9715896Y-13387984D02*
X9677801Y-13387984D01*
X9677801Y-13387984D02*
X9658753Y-13378460D01*
X9658753Y-13378460D02*
X9649230Y-13359412D01*
X9649230Y-13359412D02*
X9649230Y-13283222D01*
X9649230Y-13283222D02*
X9658753Y-13264174D01*
X9658753Y-13264174D02*
X9677801Y-13254650D01*
X9677801Y-13254650D02*
X9715896Y-13254650D01*
X9715896Y-13254650D02*
X9734944Y-13264174D01*
X9734944Y-13264174D02*
X9744468Y-13283222D01*
X9744468Y-13283222D02*
X9744468Y-13302269D01*
X9744468Y-13302269D02*
X9649230Y-13321317D01*
X9820658Y-13378460D02*
X9839706Y-13387984D01*
X9839706Y-13387984D02*
X9877801Y-13387984D01*
X9877801Y-13387984D02*
X9896849Y-13378460D01*
X9896849Y-13378460D02*
X9906373Y-13359412D01*
X9906373Y-13359412D02*
X9906373Y-13349888D01*
X9906373Y-13349888D02*
X9896849Y-13330841D01*
X9896849Y-13330841D02*
X9877801Y-13321317D01*
X9877801Y-13321317D02*
X9849230Y-13321317D01*
X9849230Y-13321317D02*
X9830182Y-13311793D01*
X9830182Y-13311793D02*
X9820658Y-13292746D01*
X9820658Y-13292746D02*
X9820658Y-13283222D01*
X9820658Y-13283222D02*
X9830182Y-13264174D01*
X9830182Y-13264174D02*
X9849230Y-13254650D01*
X9849230Y-13254650D02*
X9877801Y-13254650D01*
X9877801Y-13254650D02*
X9896849Y-13264174D01*
X9973039Y-13464174D02*
X9982563Y-13454650D01*
X9982563Y-13454650D02*
X10001611Y-13426079D01*
X10001611Y-13426079D02*
X10011134Y-13407031D01*
X10011134Y-13407031D02*
X10020658Y-13378460D01*
X10020658Y-13378460D02*
X10030182Y-13330841D01*
X10030182Y-13330841D02*
X10030182Y-13292746D01*
X10030182Y-13292746D02*
X10020658Y-13245127D01*
X10020658Y-13245127D02*
X10011134Y-13216555D01*
X10011134Y-13216555D02*
X10001611Y-13197508D01*
X10001611Y-13197508D02*
X9982563Y-13168936D01*
X9982563Y-13168936D02*
X9973039Y-13159412D01*
D12*
X4957500Y-13510500D02*
X4957500Y-13610500D01*
X4907500Y-13560500D02*
X5007500Y-13560500D01*
D11*
X5373039Y-13651984D02*
X5258753Y-13651984D01*
X5315896Y-13651984D02*
X5315896Y-13451984D01*
X5315896Y-13451984D02*
X5296848Y-13480555D01*
X5296848Y-13480555D02*
X5277801Y-13499603D01*
X5277801Y-13499603D02*
X5258753Y-13509127D01*
X5458753Y-13632936D02*
X5468277Y-13642460D01*
X5468277Y-13642460D02*
X5458753Y-13651984D01*
X5458753Y-13651984D02*
X5449229Y-13642460D01*
X5449229Y-13642460D02*
X5458753Y-13632936D01*
X5458753Y-13632936D02*
X5458753Y-13651984D01*
X5592086Y-13451984D02*
X5611134Y-13451984D01*
X5611134Y-13451984D02*
X5630182Y-13461508D01*
X5630182Y-13461508D02*
X5639705Y-13471031D01*
X5639705Y-13471031D02*
X5649229Y-13490079D01*
X5649229Y-13490079D02*
X5658753Y-13528174D01*
X5658753Y-13528174D02*
X5658753Y-13575793D01*
X5658753Y-13575793D02*
X5649229Y-13613888D01*
X5649229Y-13613888D02*
X5639705Y-13632936D01*
X5639705Y-13632936D02*
X5630182Y-13642460D01*
X5630182Y-13642460D02*
X5611134Y-13651984D01*
X5611134Y-13651984D02*
X5592086Y-13651984D01*
X5592086Y-13651984D02*
X5573039Y-13642460D01*
X5573039Y-13642460D02*
X5563515Y-13632936D01*
X5563515Y-13632936D02*
X5553991Y-13613888D01*
X5553991Y-13613888D02*
X5544467Y-13575793D01*
X5544467Y-13575793D02*
X5544467Y-13528174D01*
X5544467Y-13528174D02*
X5553991Y-13490079D01*
X5553991Y-13490079D02*
X5563515Y-13471031D01*
X5563515Y-13471031D02*
X5573039Y-13461508D01*
X5573039Y-13461508D02*
X5592086Y-13451984D01*
X5782562Y-13451984D02*
X5801610Y-13451984D01*
X5801610Y-13451984D02*
X5820658Y-13461508D01*
X5820658Y-13461508D02*
X5830182Y-13471031D01*
X5830182Y-13471031D02*
X5839705Y-13490079D01*
X5839705Y-13490079D02*
X5849229Y-13528174D01*
X5849229Y-13528174D02*
X5849229Y-13575793D01*
X5849229Y-13575793D02*
X5839705Y-13613888D01*
X5839705Y-13613888D02*
X5830182Y-13632936D01*
X5830182Y-13632936D02*
X5820658Y-13642460D01*
X5820658Y-13642460D02*
X5801610Y-13651984D01*
X5801610Y-13651984D02*
X5782562Y-13651984D01*
X5782562Y-13651984D02*
X5763515Y-13642460D01*
X5763515Y-13642460D02*
X5753991Y-13632936D01*
X5753991Y-13632936D02*
X5744467Y-13613888D01*
X5744467Y-13613888D02*
X5734943Y-13575793D01*
X5734943Y-13575793D02*
X5734943Y-13528174D01*
X5734943Y-13528174D02*
X5744467Y-13490079D01*
X5744467Y-13490079D02*
X5753991Y-13471031D01*
X5753991Y-13471031D02*
X5763515Y-13461508D01*
X5763515Y-13461508D02*
X5782562Y-13451984D01*
X5973039Y-13451984D02*
X5992086Y-13451984D01*
X5992086Y-13451984D02*
X6011134Y-13461508D01*
X6011134Y-13461508D02*
X6020658Y-13471031D01*
X6020658Y-13471031D02*
X6030182Y-13490079D01*
X6030182Y-13490079D02*
X6039705Y-13528174D01*
X6039705Y-13528174D02*
X6039705Y-13575793D01*
X6039705Y-13575793D02*
X6030182Y-13613888D01*
X6030182Y-13613888D02*
X6020658Y-13632936D01*
X6020658Y-13632936D02*
X6011134Y-13642460D01*
X6011134Y-13642460D02*
X5992086Y-13651984D01*
X5992086Y-13651984D02*
X5973039Y-13651984D01*
X5973039Y-13651984D02*
X5953991Y-13642460D01*
X5953991Y-13642460D02*
X5944467Y-13632936D01*
X5944467Y-13632936D02*
X5934943Y-13613888D01*
X5934943Y-13613888D02*
X5925420Y-13575793D01*
X5925420Y-13575793D02*
X5925420Y-13528174D01*
X5925420Y-13528174D02*
X5934943Y-13490079D01*
X5934943Y-13490079D02*
X5944467Y-13471031D01*
X5944467Y-13471031D02*
X5953991Y-13461508D01*
X5953991Y-13461508D02*
X5973039Y-13451984D01*
X6125420Y-13651984D02*
X6125420Y-13518650D01*
X6125420Y-13537698D02*
X6134943Y-13528174D01*
X6134943Y-13528174D02*
X6153991Y-13518650D01*
X6153991Y-13518650D02*
X6182563Y-13518650D01*
X6182563Y-13518650D02*
X6201610Y-13528174D01*
X6201610Y-13528174D02*
X6211134Y-13547222D01*
X6211134Y-13547222D02*
X6211134Y-13651984D01*
X6211134Y-13547222D02*
X6220658Y-13528174D01*
X6220658Y-13528174D02*
X6239705Y-13518650D01*
X6239705Y-13518650D02*
X6268277Y-13518650D01*
X6268277Y-13518650D02*
X6287324Y-13528174D01*
X6287324Y-13528174D02*
X6296848Y-13547222D01*
X6296848Y-13547222D02*
X6296848Y-13651984D01*
X6392086Y-13651984D02*
X6392086Y-13518650D01*
X6392086Y-13537698D02*
X6401610Y-13528174D01*
X6401610Y-13528174D02*
X6420658Y-13518650D01*
X6420658Y-13518650D02*
X6449229Y-13518650D01*
X6449229Y-13518650D02*
X6468277Y-13528174D01*
X6468277Y-13528174D02*
X6477801Y-13547222D01*
X6477801Y-13547222D02*
X6477801Y-13651984D01*
X6477801Y-13547222D02*
X6487324Y-13528174D01*
X6487324Y-13528174D02*
X6506372Y-13518650D01*
X6506372Y-13518650D02*
X6534943Y-13518650D01*
X6534943Y-13518650D02*
X6553991Y-13528174D01*
X6553991Y-13528174D02*
X6563515Y-13547222D01*
X6563515Y-13547222D02*
X6563515Y-13651984D01*
X6953991Y-13442460D02*
X6782563Y-13699603D01*
X7211134Y-13451984D02*
X7230182Y-13451984D01*
X7230182Y-13451984D02*
X7249229Y-13461508D01*
X7249229Y-13461508D02*
X7258753Y-13471031D01*
X7258753Y-13471031D02*
X7268277Y-13490079D01*
X7268277Y-13490079D02*
X7277801Y-13528174D01*
X7277801Y-13528174D02*
X7277801Y-13575793D01*
X7277801Y-13575793D02*
X7268277Y-13613888D01*
X7268277Y-13613888D02*
X7258753Y-13632936D01*
X7258753Y-13632936D02*
X7249229Y-13642460D01*
X7249229Y-13642460D02*
X7230182Y-13651984D01*
X7230182Y-13651984D02*
X7211134Y-13651984D01*
X7211134Y-13651984D02*
X7192086Y-13642460D01*
X7192086Y-13642460D02*
X7182563Y-13632936D01*
X7182563Y-13632936D02*
X7173039Y-13613888D01*
X7173039Y-13613888D02*
X7163515Y-13575793D01*
X7163515Y-13575793D02*
X7163515Y-13528174D01*
X7163515Y-13528174D02*
X7173039Y-13490079D01*
X7173039Y-13490079D02*
X7182563Y-13471031D01*
X7182563Y-13471031D02*
X7192086Y-13461508D01*
X7192086Y-13461508D02*
X7211134Y-13451984D01*
X7363515Y-13632936D02*
X7373039Y-13642460D01*
X7373039Y-13642460D02*
X7363515Y-13651984D01*
X7363515Y-13651984D02*
X7353991Y-13642460D01*
X7353991Y-13642460D02*
X7363515Y-13632936D01*
X7363515Y-13632936D02*
X7363515Y-13651984D01*
X7496848Y-13451984D02*
X7515896Y-13451984D01*
X7515896Y-13451984D02*
X7534944Y-13461508D01*
X7534944Y-13461508D02*
X7544467Y-13471031D01*
X7544467Y-13471031D02*
X7553991Y-13490079D01*
X7553991Y-13490079D02*
X7563515Y-13528174D01*
X7563515Y-13528174D02*
X7563515Y-13575793D01*
X7563515Y-13575793D02*
X7553991Y-13613888D01*
X7553991Y-13613888D02*
X7544467Y-13632936D01*
X7544467Y-13632936D02*
X7534944Y-13642460D01*
X7534944Y-13642460D02*
X7515896Y-13651984D01*
X7515896Y-13651984D02*
X7496848Y-13651984D01*
X7496848Y-13651984D02*
X7477801Y-13642460D01*
X7477801Y-13642460D02*
X7468277Y-13632936D01*
X7468277Y-13632936D02*
X7458753Y-13613888D01*
X7458753Y-13613888D02*
X7449229Y-13575793D01*
X7449229Y-13575793D02*
X7449229Y-13528174D01*
X7449229Y-13528174D02*
X7458753Y-13490079D01*
X7458753Y-13490079D02*
X7468277Y-13471031D01*
X7468277Y-13471031D02*
X7477801Y-13461508D01*
X7477801Y-13461508D02*
X7496848Y-13451984D01*
X7630182Y-13451984D02*
X7753991Y-13451984D01*
X7753991Y-13451984D02*
X7687325Y-13528174D01*
X7687325Y-13528174D02*
X7715896Y-13528174D01*
X7715896Y-13528174D02*
X7734944Y-13537698D01*
X7734944Y-13537698D02*
X7744467Y-13547222D01*
X7744467Y-13547222D02*
X7753991Y-13566269D01*
X7753991Y-13566269D02*
X7753991Y-13613888D01*
X7753991Y-13613888D02*
X7744467Y-13632936D01*
X7744467Y-13632936D02*
X7734944Y-13642460D01*
X7734944Y-13642460D02*
X7715896Y-13651984D01*
X7715896Y-13651984D02*
X7658753Y-13651984D01*
X7658753Y-13651984D02*
X7639706Y-13642460D01*
X7639706Y-13642460D02*
X7630182Y-13632936D01*
X7849229Y-13651984D02*
X7887325Y-13651984D01*
X7887325Y-13651984D02*
X7906372Y-13642460D01*
X7906372Y-13642460D02*
X7915896Y-13632936D01*
X7915896Y-13632936D02*
X7934944Y-13604365D01*
X7934944Y-13604365D02*
X7944467Y-13566269D01*
X7944467Y-13566269D02*
X7944467Y-13490079D01*
X7944467Y-13490079D02*
X7934944Y-13471031D01*
X7934944Y-13471031D02*
X7925420Y-13461508D01*
X7925420Y-13461508D02*
X7906372Y-13451984D01*
X7906372Y-13451984D02*
X7868277Y-13451984D01*
X7868277Y-13451984D02*
X7849229Y-13461508D01*
X7849229Y-13461508D02*
X7839706Y-13471031D01*
X7839706Y-13471031D02*
X7830182Y-13490079D01*
X7830182Y-13490079D02*
X7830182Y-13537698D01*
X7830182Y-13537698D02*
X7839706Y-13556746D01*
X7839706Y-13556746D02*
X7849229Y-13566269D01*
X7849229Y-13566269D02*
X7868277Y-13575793D01*
X7868277Y-13575793D02*
X7906372Y-13575793D01*
X7906372Y-13575793D02*
X7925420Y-13566269D01*
X7925420Y-13566269D02*
X7934944Y-13556746D01*
X7934944Y-13556746D02*
X7944467Y-13537698D01*
X8115896Y-13518650D02*
X8115896Y-13651984D01*
X8068277Y-13442460D02*
X8020658Y-13585317D01*
X8020658Y-13585317D02*
X8144467Y-13585317D01*
X8211134Y-13451984D02*
X8211134Y-13490079D01*
X8287325Y-13451984D02*
X8287325Y-13490079D01*
X8582563Y-13728174D02*
X8573039Y-13718650D01*
X8573039Y-13718650D02*
X8553991Y-13690079D01*
X8553991Y-13690079D02*
X8544468Y-13671031D01*
X8544468Y-13671031D02*
X8534944Y-13642460D01*
X8534944Y-13642460D02*
X8525420Y-13594841D01*
X8525420Y-13594841D02*
X8525420Y-13556746D01*
X8525420Y-13556746D02*
X8534944Y-13509127D01*
X8534944Y-13509127D02*
X8544468Y-13480555D01*
X8544468Y-13480555D02*
X8553991Y-13461508D01*
X8553991Y-13461508D02*
X8573039Y-13432936D01*
X8573039Y-13432936D02*
X8582563Y-13423412D01*
X8744468Y-13518650D02*
X8744468Y-13651984D01*
X8696849Y-13442460D02*
X8649230Y-13585317D01*
X8649230Y-13585317D02*
X8773039Y-13585317D01*
X8858753Y-13651984D02*
X8896849Y-13651984D01*
X8896849Y-13651984D02*
X8915896Y-13642460D01*
X8915896Y-13642460D02*
X8925420Y-13632936D01*
X8925420Y-13632936D02*
X8944468Y-13604365D01*
X8944468Y-13604365D02*
X8953991Y-13566269D01*
X8953991Y-13566269D02*
X8953991Y-13490079D01*
X8953991Y-13490079D02*
X8944468Y-13471031D01*
X8944468Y-13471031D02*
X8934944Y-13461508D01*
X8934944Y-13461508D02*
X8915896Y-13451984D01*
X8915896Y-13451984D02*
X8877801Y-13451984D01*
X8877801Y-13451984D02*
X8858753Y-13461508D01*
X8858753Y-13461508D02*
X8849230Y-13471031D01*
X8849230Y-13471031D02*
X8839706Y-13490079D01*
X8839706Y-13490079D02*
X8839706Y-13537698D01*
X8839706Y-13537698D02*
X8849230Y-13556746D01*
X8849230Y-13556746D02*
X8858753Y-13566269D01*
X8858753Y-13566269D02*
X8877801Y-13575793D01*
X8877801Y-13575793D02*
X8915896Y-13575793D01*
X8915896Y-13575793D02*
X8934944Y-13566269D01*
X8934944Y-13566269D02*
X8944468Y-13556746D01*
X8944468Y-13556746D02*
X8953991Y-13537698D01*
X9192087Y-13651984D02*
X9192087Y-13451984D01*
X9277801Y-13651984D02*
X9277801Y-13547222D01*
X9277801Y-13547222D02*
X9268277Y-13528174D01*
X9268277Y-13528174D02*
X9249230Y-13518650D01*
X9249230Y-13518650D02*
X9220658Y-13518650D01*
X9220658Y-13518650D02*
X9201611Y-13528174D01*
X9201611Y-13528174D02*
X9192087Y-13537698D01*
X9401611Y-13651984D02*
X9382563Y-13642460D01*
X9382563Y-13642460D02*
X9373039Y-13632936D01*
X9373039Y-13632936D02*
X9363515Y-13613888D01*
X9363515Y-13613888D02*
X9363515Y-13556746D01*
X9363515Y-13556746D02*
X9373039Y-13537698D01*
X9373039Y-13537698D02*
X9382563Y-13528174D01*
X9382563Y-13528174D02*
X9401611Y-13518650D01*
X9401611Y-13518650D02*
X9430182Y-13518650D01*
X9430182Y-13518650D02*
X9449230Y-13528174D01*
X9449230Y-13528174D02*
X9458753Y-13537698D01*
X9458753Y-13537698D02*
X9468277Y-13556746D01*
X9468277Y-13556746D02*
X9468277Y-13613888D01*
X9468277Y-13613888D02*
X9458753Y-13632936D01*
X9458753Y-13632936D02*
X9449230Y-13642460D01*
X9449230Y-13642460D02*
X9430182Y-13651984D01*
X9430182Y-13651984D02*
X9401611Y-13651984D01*
X9582563Y-13651984D02*
X9563515Y-13642460D01*
X9563515Y-13642460D02*
X9553992Y-13623412D01*
X9553992Y-13623412D02*
X9553992Y-13451984D01*
X9734944Y-13642460D02*
X9715896Y-13651984D01*
X9715896Y-13651984D02*
X9677801Y-13651984D01*
X9677801Y-13651984D02*
X9658753Y-13642460D01*
X9658753Y-13642460D02*
X9649230Y-13623412D01*
X9649230Y-13623412D02*
X9649230Y-13547222D01*
X9649230Y-13547222D02*
X9658753Y-13528174D01*
X9658753Y-13528174D02*
X9677801Y-13518650D01*
X9677801Y-13518650D02*
X9715896Y-13518650D01*
X9715896Y-13518650D02*
X9734944Y-13528174D01*
X9734944Y-13528174D02*
X9744468Y-13547222D01*
X9744468Y-13547222D02*
X9744468Y-13566269D01*
X9744468Y-13566269D02*
X9649230Y-13585317D01*
X9820658Y-13642460D02*
X9839706Y-13651984D01*
X9839706Y-13651984D02*
X9877801Y-13651984D01*
X9877801Y-13651984D02*
X9896849Y-13642460D01*
X9896849Y-13642460D02*
X9906373Y-13623412D01*
X9906373Y-13623412D02*
X9906373Y-13613888D01*
X9906373Y-13613888D02*
X9896849Y-13594841D01*
X9896849Y-13594841D02*
X9877801Y-13585317D01*
X9877801Y-13585317D02*
X9849230Y-13585317D01*
X9849230Y-13585317D02*
X9830182Y-13575793D01*
X9830182Y-13575793D02*
X9820658Y-13556746D01*
X9820658Y-13556746D02*
X9820658Y-13547222D01*
X9820658Y-13547222D02*
X9830182Y-13528174D01*
X9830182Y-13528174D02*
X9849230Y-13518650D01*
X9849230Y-13518650D02*
X9877801Y-13518650D01*
X9877801Y-13518650D02*
X9896849Y-13528174D01*
X9973039Y-13728174D02*
X9982563Y-13718650D01*
X9982563Y-13718650D02*
X10001611Y-13690079D01*
X10001611Y-13690079D02*
X10011134Y-13671031D01*
X10011134Y-13671031D02*
X10020658Y-13642460D01*
X10020658Y-13642460D02*
X10030182Y-13594841D01*
X10030182Y-13594841D02*
X10030182Y-13556746D01*
X10030182Y-13556746D02*
X10020658Y-13509127D01*
X10020658Y-13509127D02*
X10011134Y-13480555D01*
X10011134Y-13480555D02*
X10001611Y-13461508D01*
X10001611Y-13461508D02*
X9982563Y-13432936D01*
X9982563Y-13432936D02*
X9973039Y-13423412D01*
D13*
X4988462Y-13870462D02*
X4988462Y-13778538D01*
X4896538Y-13778538D01*
X4896538Y-13870462D01*
X4988462Y-13870462D01*
D11*
X5373039Y-13915984D02*
X5258753Y-13915984D01*
X5315896Y-13915984D02*
X5315896Y-13715984D01*
X5315896Y-13715984D02*
X5296848Y-13744555D01*
X5296848Y-13744555D02*
X5277801Y-13763603D01*
X5277801Y-13763603D02*
X5258753Y-13773127D01*
X5458753Y-13896936D02*
X5468277Y-13906460D01*
X5468277Y-13906460D02*
X5458753Y-13915984D01*
X5458753Y-13915984D02*
X5449229Y-13906460D01*
X5449229Y-13906460D02*
X5458753Y-13896936D01*
X5458753Y-13896936D02*
X5458753Y-13915984D01*
X5534944Y-13715984D02*
X5658753Y-13715984D01*
X5658753Y-13715984D02*
X5592086Y-13792174D01*
X5592086Y-13792174D02*
X5620658Y-13792174D01*
X5620658Y-13792174D02*
X5639705Y-13801698D01*
X5639705Y-13801698D02*
X5649229Y-13811222D01*
X5649229Y-13811222D02*
X5658753Y-13830269D01*
X5658753Y-13830269D02*
X5658753Y-13877888D01*
X5658753Y-13877888D02*
X5649229Y-13896936D01*
X5649229Y-13896936D02*
X5639705Y-13906460D01*
X5639705Y-13906460D02*
X5620658Y-13915984D01*
X5620658Y-13915984D02*
X5563515Y-13915984D01*
X5563515Y-13915984D02*
X5544467Y-13906460D01*
X5544467Y-13906460D02*
X5534944Y-13896936D01*
X5782562Y-13715984D02*
X5801610Y-13715984D01*
X5801610Y-13715984D02*
X5820658Y-13725508D01*
X5820658Y-13725508D02*
X5830182Y-13735031D01*
X5830182Y-13735031D02*
X5839705Y-13754079D01*
X5839705Y-13754079D02*
X5849229Y-13792174D01*
X5849229Y-13792174D02*
X5849229Y-13839793D01*
X5849229Y-13839793D02*
X5839705Y-13877888D01*
X5839705Y-13877888D02*
X5830182Y-13896936D01*
X5830182Y-13896936D02*
X5820658Y-13906460D01*
X5820658Y-13906460D02*
X5801610Y-13915984D01*
X5801610Y-13915984D02*
X5782562Y-13915984D01*
X5782562Y-13915984D02*
X5763515Y-13906460D01*
X5763515Y-13906460D02*
X5753991Y-13896936D01*
X5753991Y-13896936D02*
X5744467Y-13877888D01*
X5744467Y-13877888D02*
X5734943Y-13839793D01*
X5734943Y-13839793D02*
X5734943Y-13792174D01*
X5734943Y-13792174D02*
X5744467Y-13754079D01*
X5744467Y-13754079D02*
X5753991Y-13735031D01*
X5753991Y-13735031D02*
X5763515Y-13725508D01*
X5763515Y-13725508D02*
X5782562Y-13715984D01*
X5973039Y-13715984D02*
X5992086Y-13715984D01*
X5992086Y-13715984D02*
X6011134Y-13725508D01*
X6011134Y-13725508D02*
X6020658Y-13735031D01*
X6020658Y-13735031D02*
X6030182Y-13754079D01*
X6030182Y-13754079D02*
X6039705Y-13792174D01*
X6039705Y-13792174D02*
X6039705Y-13839793D01*
X6039705Y-13839793D02*
X6030182Y-13877888D01*
X6030182Y-13877888D02*
X6020658Y-13896936D01*
X6020658Y-13896936D02*
X6011134Y-13906460D01*
X6011134Y-13906460D02*
X5992086Y-13915984D01*
X5992086Y-13915984D02*
X5973039Y-13915984D01*
X5973039Y-13915984D02*
X5953991Y-13906460D01*
X5953991Y-13906460D02*
X5944467Y-13896936D01*
X5944467Y-13896936D02*
X5934943Y-13877888D01*
X5934943Y-13877888D02*
X5925420Y-13839793D01*
X5925420Y-13839793D02*
X5925420Y-13792174D01*
X5925420Y-13792174D02*
X5934943Y-13754079D01*
X5934943Y-13754079D02*
X5944467Y-13735031D01*
X5944467Y-13735031D02*
X5953991Y-13725508D01*
X5953991Y-13725508D02*
X5973039Y-13715984D01*
X6125420Y-13915984D02*
X6125420Y-13782650D01*
X6125420Y-13801698D02*
X6134943Y-13792174D01*
X6134943Y-13792174D02*
X6153991Y-13782650D01*
X6153991Y-13782650D02*
X6182563Y-13782650D01*
X6182563Y-13782650D02*
X6201610Y-13792174D01*
X6201610Y-13792174D02*
X6211134Y-13811222D01*
X6211134Y-13811222D02*
X6211134Y-13915984D01*
X6211134Y-13811222D02*
X6220658Y-13792174D01*
X6220658Y-13792174D02*
X6239705Y-13782650D01*
X6239705Y-13782650D02*
X6268277Y-13782650D01*
X6268277Y-13782650D02*
X6287324Y-13792174D01*
X6287324Y-13792174D02*
X6296848Y-13811222D01*
X6296848Y-13811222D02*
X6296848Y-13915984D01*
X6392086Y-13915984D02*
X6392086Y-13782650D01*
X6392086Y-13801698D02*
X6401610Y-13792174D01*
X6401610Y-13792174D02*
X6420658Y-13782650D01*
X6420658Y-13782650D02*
X6449229Y-13782650D01*
X6449229Y-13782650D02*
X6468277Y-13792174D01*
X6468277Y-13792174D02*
X6477801Y-13811222D01*
X6477801Y-13811222D02*
X6477801Y-13915984D01*
X6477801Y-13811222D02*
X6487324Y-13792174D01*
X6487324Y-13792174D02*
X6506372Y-13782650D01*
X6506372Y-13782650D02*
X6534943Y-13782650D01*
X6534943Y-13782650D02*
X6553991Y-13792174D01*
X6553991Y-13792174D02*
X6563515Y-13811222D01*
X6563515Y-13811222D02*
X6563515Y-13915984D01*
X6953991Y-13706460D02*
X6782563Y-13963603D01*
X7211134Y-13715984D02*
X7230182Y-13715984D01*
X7230182Y-13715984D02*
X7249229Y-13725508D01*
X7249229Y-13725508D02*
X7258753Y-13735031D01*
X7258753Y-13735031D02*
X7268277Y-13754079D01*
X7268277Y-13754079D02*
X7277801Y-13792174D01*
X7277801Y-13792174D02*
X7277801Y-13839793D01*
X7277801Y-13839793D02*
X7268277Y-13877888D01*
X7268277Y-13877888D02*
X7258753Y-13896936D01*
X7258753Y-13896936D02*
X7249229Y-13906460D01*
X7249229Y-13906460D02*
X7230182Y-13915984D01*
X7230182Y-13915984D02*
X7211134Y-13915984D01*
X7211134Y-13915984D02*
X7192086Y-13906460D01*
X7192086Y-13906460D02*
X7182563Y-13896936D01*
X7182563Y-13896936D02*
X7173039Y-13877888D01*
X7173039Y-13877888D02*
X7163515Y-13839793D01*
X7163515Y-13839793D02*
X7163515Y-13792174D01*
X7163515Y-13792174D02*
X7173039Y-13754079D01*
X7173039Y-13754079D02*
X7182563Y-13735031D01*
X7182563Y-13735031D02*
X7192086Y-13725508D01*
X7192086Y-13725508D02*
X7211134Y-13715984D01*
X7363515Y-13896936D02*
X7373039Y-13906460D01*
X7373039Y-13906460D02*
X7363515Y-13915984D01*
X7363515Y-13915984D02*
X7353991Y-13906460D01*
X7353991Y-13906460D02*
X7363515Y-13896936D01*
X7363515Y-13896936D02*
X7363515Y-13915984D01*
X7496848Y-13715984D02*
X7515896Y-13715984D01*
X7515896Y-13715984D02*
X7534944Y-13725508D01*
X7534944Y-13725508D02*
X7544467Y-13735031D01*
X7544467Y-13735031D02*
X7553991Y-13754079D01*
X7553991Y-13754079D02*
X7563515Y-13792174D01*
X7563515Y-13792174D02*
X7563515Y-13839793D01*
X7563515Y-13839793D02*
X7553991Y-13877888D01*
X7553991Y-13877888D02*
X7544467Y-13896936D01*
X7544467Y-13896936D02*
X7534944Y-13906460D01*
X7534944Y-13906460D02*
X7515896Y-13915984D01*
X7515896Y-13915984D02*
X7496848Y-13915984D01*
X7496848Y-13915984D02*
X7477801Y-13906460D01*
X7477801Y-13906460D02*
X7468277Y-13896936D01*
X7468277Y-13896936D02*
X7458753Y-13877888D01*
X7458753Y-13877888D02*
X7449229Y-13839793D01*
X7449229Y-13839793D02*
X7449229Y-13792174D01*
X7449229Y-13792174D02*
X7458753Y-13754079D01*
X7458753Y-13754079D02*
X7468277Y-13735031D01*
X7468277Y-13735031D02*
X7477801Y-13725508D01*
X7477801Y-13725508D02*
X7496848Y-13715984D01*
X7744467Y-13715984D02*
X7649229Y-13715984D01*
X7649229Y-13715984D02*
X7639706Y-13811222D01*
X7639706Y-13811222D02*
X7649229Y-13801698D01*
X7649229Y-13801698D02*
X7668277Y-13792174D01*
X7668277Y-13792174D02*
X7715896Y-13792174D01*
X7715896Y-13792174D02*
X7734944Y-13801698D01*
X7734944Y-13801698D02*
X7744467Y-13811222D01*
X7744467Y-13811222D02*
X7753991Y-13830269D01*
X7753991Y-13830269D02*
X7753991Y-13877888D01*
X7753991Y-13877888D02*
X7744467Y-13896936D01*
X7744467Y-13896936D02*
X7734944Y-13906460D01*
X7734944Y-13906460D02*
X7715896Y-13915984D01*
X7715896Y-13915984D02*
X7668277Y-13915984D01*
X7668277Y-13915984D02*
X7649229Y-13906460D01*
X7649229Y-13906460D02*
X7639706Y-13896936D01*
X7944467Y-13915984D02*
X7830182Y-13915984D01*
X7887325Y-13915984D02*
X7887325Y-13715984D01*
X7887325Y-13715984D02*
X7868277Y-13744555D01*
X7868277Y-13744555D02*
X7849229Y-13763603D01*
X7849229Y-13763603D02*
X7830182Y-13773127D01*
X8020658Y-13735031D02*
X8030182Y-13725508D01*
X8030182Y-13725508D02*
X8049229Y-13715984D01*
X8049229Y-13715984D02*
X8096848Y-13715984D01*
X8096848Y-13715984D02*
X8115896Y-13725508D01*
X8115896Y-13725508D02*
X8125420Y-13735031D01*
X8125420Y-13735031D02*
X8134944Y-13754079D01*
X8134944Y-13754079D02*
X8134944Y-13773127D01*
X8134944Y-13773127D02*
X8125420Y-13801698D01*
X8125420Y-13801698D02*
X8011134Y-13915984D01*
X8011134Y-13915984D02*
X8134944Y-13915984D01*
X8211134Y-13715984D02*
X8211134Y-13754079D01*
X8287325Y-13715984D02*
X8287325Y-13754079D01*
X8582563Y-13992174D02*
X8573039Y-13982650D01*
X8573039Y-13982650D02*
X8553991Y-13954079D01*
X8553991Y-13954079D02*
X8544468Y-13935031D01*
X8544468Y-13935031D02*
X8534944Y-13906460D01*
X8534944Y-13906460D02*
X8525420Y-13858841D01*
X8525420Y-13858841D02*
X8525420Y-13820746D01*
X8525420Y-13820746D02*
X8534944Y-13773127D01*
X8534944Y-13773127D02*
X8544468Y-13744555D01*
X8544468Y-13744555D02*
X8553991Y-13725508D01*
X8553991Y-13725508D02*
X8573039Y-13696936D01*
X8573039Y-13696936D02*
X8582563Y-13687412D01*
X8649230Y-13735031D02*
X8658753Y-13725508D01*
X8658753Y-13725508D02*
X8677801Y-13715984D01*
X8677801Y-13715984D02*
X8725420Y-13715984D01*
X8725420Y-13715984D02*
X8744468Y-13725508D01*
X8744468Y-13725508D02*
X8753991Y-13735031D01*
X8753991Y-13735031D02*
X8763515Y-13754079D01*
X8763515Y-13754079D02*
X8763515Y-13773127D01*
X8763515Y-13773127D02*
X8753991Y-13801698D01*
X8753991Y-13801698D02*
X8639706Y-13915984D01*
X8639706Y-13915984D02*
X8763515Y-13915984D01*
X9001611Y-13915984D02*
X9001611Y-13715984D01*
X9087325Y-13915984D02*
X9087325Y-13811222D01*
X9087325Y-13811222D02*
X9077801Y-13792174D01*
X9077801Y-13792174D02*
X9058753Y-13782650D01*
X9058753Y-13782650D02*
X9030182Y-13782650D01*
X9030182Y-13782650D02*
X9011134Y-13792174D01*
X9011134Y-13792174D02*
X9001611Y-13801698D01*
X9211134Y-13915984D02*
X9192087Y-13906460D01*
X9192087Y-13906460D02*
X9182563Y-13896936D01*
X9182563Y-13896936D02*
X9173039Y-13877888D01*
X9173039Y-13877888D02*
X9173039Y-13820746D01*
X9173039Y-13820746D02*
X9182563Y-13801698D01*
X9182563Y-13801698D02*
X9192087Y-13792174D01*
X9192087Y-13792174D02*
X9211134Y-13782650D01*
X9211134Y-13782650D02*
X9239706Y-13782650D01*
X9239706Y-13782650D02*
X9258753Y-13792174D01*
X9258753Y-13792174D02*
X9268277Y-13801698D01*
X9268277Y-13801698D02*
X9277801Y-13820746D01*
X9277801Y-13820746D02*
X9277801Y-13877888D01*
X9277801Y-13877888D02*
X9268277Y-13896936D01*
X9268277Y-13896936D02*
X9258753Y-13906460D01*
X9258753Y-13906460D02*
X9239706Y-13915984D01*
X9239706Y-13915984D02*
X9211134Y-13915984D01*
X9392087Y-13915984D02*
X9373039Y-13906460D01*
X9373039Y-13906460D02*
X9363515Y-13887412D01*
X9363515Y-13887412D02*
X9363515Y-13715984D01*
X9544468Y-13906460D02*
X9525420Y-13915984D01*
X9525420Y-13915984D02*
X9487325Y-13915984D01*
X9487325Y-13915984D02*
X9468277Y-13906460D01*
X9468277Y-13906460D02*
X9458753Y-13887412D01*
X9458753Y-13887412D02*
X9458753Y-13811222D01*
X9458753Y-13811222D02*
X9468277Y-13792174D01*
X9468277Y-13792174D02*
X9487325Y-13782650D01*
X9487325Y-13782650D02*
X9525420Y-13782650D01*
X9525420Y-13782650D02*
X9544468Y-13792174D01*
X9544468Y-13792174D02*
X9553992Y-13811222D01*
X9553992Y-13811222D02*
X9553992Y-13830269D01*
X9553992Y-13830269D02*
X9458753Y-13849317D01*
X9630182Y-13906460D02*
X9649230Y-13915984D01*
X9649230Y-13915984D02*
X9687325Y-13915984D01*
X9687325Y-13915984D02*
X9706373Y-13906460D01*
X9706373Y-13906460D02*
X9715896Y-13887412D01*
X9715896Y-13887412D02*
X9715896Y-13877888D01*
X9715896Y-13877888D02*
X9706373Y-13858841D01*
X9706373Y-13858841D02*
X9687325Y-13849317D01*
X9687325Y-13849317D02*
X9658753Y-13849317D01*
X9658753Y-13849317D02*
X9639706Y-13839793D01*
X9639706Y-13839793D02*
X9630182Y-13820746D01*
X9630182Y-13820746D02*
X9630182Y-13811222D01*
X9630182Y-13811222D02*
X9639706Y-13792174D01*
X9639706Y-13792174D02*
X9658753Y-13782650D01*
X9658753Y-13782650D02*
X9687325Y-13782650D01*
X9687325Y-13782650D02*
X9706373Y-13792174D01*
X9782563Y-13992174D02*
X9792087Y-13982650D01*
X9792087Y-13982650D02*
X9811134Y-13954079D01*
X9811134Y-13954079D02*
X9820658Y-13935031D01*
X9820658Y-13935031D02*
X9830182Y-13906460D01*
X9830182Y-13906460D02*
X9839706Y-13858841D01*
X9839706Y-13858841D02*
X9839706Y-13820746D01*
X9839706Y-13820746D02*
X9830182Y-13773127D01*
X9830182Y-13773127D02*
X9820658Y-13744555D01*
X9820658Y-13744555D02*
X9811134Y-13725508D01*
X9811134Y-13725508D02*
X9792087Y-13696936D01*
X9792087Y-13696936D02*
X9782563Y-13687412D01*
M02*
