M48
; DRILL file {KiCad 9.0.2} date 2025-12-05T19:39:55-0500
; FORMAT={-:-/ absolute / metric / decimal}
; #@! TF.CreationDate,2025-12-05T19:39:55-05:00
; #@! TF.GenerationSoftware,Kicad,Pcbnew,9.0.2
; #@! TF.FileFunction,Plated,1,2,PTH
FMAT,2
METRIC
; #@! TA.AperFunction,Plated,PTH,ComponentDrill
T1C0.762
; #@! TA.AperFunction,Plated,PTH,ComponentDrill
T2C0.800
; #@! TA.AperFunction,Plated,PTH,ComponentDrill
T3C1.000
; #@! TA.AperFunction,Plated,PTH,ComponentDrill
T4C1.300
%
G90
G05
T1
X89.75Y-108.01
X92.29Y-108.01
X94.83Y-108.01
X97.37Y-108.01
X99.91Y-108.01
X102.45Y-108.01
X104.99Y-108.01
X107.53Y-108.01
T2
X57.5Y-92.45
X57.5Y-100.07
X62.71Y-83.51
X62.71Y-91.13
X68.26Y-79.4
X68.26Y-87.02
X75.18Y-119.3
X77.18Y-119.3
X79.18Y-119.3
X81.18Y-119.3
T3
X59.69Y-115.54
X67.29Y-115.54
X77.17Y-46.56
X77.17Y-71.96
X79.3Y-83.22
X79.3Y-85.76
X79.3Y-88.3
X79.3Y-90.84
X79.3Y-93.38
X79.3Y-95.92
X79.3Y-98.46
X79.71Y-46.56
X79.71Y-71.96
X82.25Y-46.56
X82.25Y-71.96
X84.79Y-46.56
X84.79Y-71.96
X87.33Y-46.56
X87.33Y-71.96
X89.87Y-46.56
X89.87Y-71.96
X91.42Y-84.87
X91.42Y-87.41
X91.42Y-89.95
X91.42Y-92.49
X92.41Y-46.56
X92.41Y-71.96
X94.95Y-46.56
X94.95Y-71.96
X97.49Y-46.56
X97.49Y-71.96
X100.03Y-46.56
X100.03Y-71.96
X102.57Y-46.56
X102.57Y-71.96
X105.11Y-46.56
X105.11Y-71.96
X107.65Y-46.56
X107.65Y-71.96
X110.19Y-46.56
X110.19Y-71.96
X112.73Y-46.56
X112.73Y-71.96
X113.57Y-112.84
X113.57Y-115.38
X113.57Y-117.92
X121.07Y-112.84
X121.07Y-115.38
X121.07Y-117.92
T4
X58.39Y-56.26
X58.39Y-61.34
M30
