%TF.GenerationSoftware,KiCad,Pcbnew,9.0.2*%
%TF.CreationDate,2025-12-05T19:38:36-05:00*%
%TF.ProjectId,PCB,5043422e-6b69-4636-9164-5f7063625858,rev?*%
%TF.SameCoordinates,Original*%
%TF.FileFunction,Soldermask,Bot*%
%TF.FilePolarity,Negative*%
%FSLAX46Y46*%
G04 Gerber Fmt 4.6, Leading zero omitted, Abs format (unit mm)*
G04 Created by KiCad (PCBNEW 9.0.2) date 2025-12-05 19:38:36*
%MOMM*%
%LPD*%
G01*
G04 APERTURE LIST*
G04 Aperture macros list*
%AMRoundRect*
0 Rectangle with rounded corners*
0 $1 Rounding radius*
0 $2 $3 $4 $5 $6 $7 $8 $9 X,Y pos of 4 corners*
0 Add a 4 corners polygon primitive as box body*
4,1,4,$2,$3,$4,$5,$6,$7,$8,$9,$2,$3,0*
0 Add four circle primitives for the rounded corners*
1,1,$1+$1,$2,$3*
1,1,$1+$1,$4,$5*
1,1,$1+$1,$6,$7*
1,1,$1+$1,$8,$9*
0 Add four rect primitives between the rounded corners*
20,1,$1+$1,$2,$3,$4,$5,0*
20,1,$1+$1,$4,$5,$6,$7,0*
20,1,$1+$1,$6,$7,$8,$9,0*
20,1,$1+$1,$8,$9,$2,$3,0*%
G04 Aperture macros list end*
%ADD10C,1.600000*%
%ADD11C,1.700000*%
%ADD12R,1.700000X1.700000*%
%ADD13C,1.524000*%
%ADD14O,1.800000X2.400000*%
%ADD15C,2.000000*%
%ADD16R,2.000000X2.000000*%
%ADD17C,1.350000*%
%ADD18R,1.350000X1.350000*%
%ADD19C,2.600000*%
%ADD20RoundRect,0.250000X-1.050000X1.050000X-1.050000X-1.050000X1.050000X-1.050000X1.050000X1.050000X0*%
G04 APERTURE END LIST*
D10*
%TO.C,REF\u002A\u002A*%
X68260000Y-79400000D03*
X68260000Y-87020000D03*
%TD*%
%TO.C,REF\u002A\u002A*%
X62710000Y-83510000D03*
X62710000Y-91130000D03*
%TD*%
%TO.C,REF\u002A\u002A*%
X57500000Y-92450000D03*
X57500000Y-100070000D03*
%TD*%
D11*
%TO.C,REF\u002A\u002A*%
X121070000Y-117920000D03*
X121070000Y-115380000D03*
D12*
X121070000Y-112840000D03*
%TD*%
D11*
%TO.C,REF\u002A\u002A*%
X113570000Y-117920000D03*
X113570000Y-115380000D03*
D12*
X113570000Y-112840000D03*
%TD*%
D13*
%TO.C,REF\u002A\u002A*%
X107530000Y-108010000D03*
X104990000Y-108010000D03*
X102450000Y-108010000D03*
X99910000Y-108010000D03*
X97370000Y-108010000D03*
X94830000Y-108010000D03*
X92290000Y-108010000D03*
X89750000Y-108010000D03*
%TD*%
D14*
%TO.C,REF\u002A\u002A*%
X77170000Y-46560000D03*
X79710000Y-46560000D03*
X82250000Y-46560000D03*
X84790000Y-46560000D03*
X87330000Y-46560000D03*
X89870000Y-46560000D03*
X92410000Y-46560000D03*
X94950000Y-46560000D03*
X97490000Y-46560000D03*
X100030000Y-46560000D03*
X102570000Y-46560000D03*
X105110000Y-46560000D03*
X107650000Y-46560000D03*
X110190000Y-46560000D03*
X112730000Y-46560000D03*
X112730000Y-71960000D03*
X110190000Y-71960000D03*
X107650000Y-71960000D03*
X105110000Y-71960000D03*
X102570000Y-71960000D03*
X100030000Y-71960000D03*
X97490000Y-71960000D03*
X94950000Y-71960000D03*
X92410000Y-71960000D03*
X89870000Y-71960000D03*
X87330000Y-71960000D03*
X84790000Y-71960000D03*
X82250000Y-71960000D03*
X79710000Y-71960000D03*
X77170000Y-71960000D03*
%TD*%
D15*
%TO.C,REF\u002A\u002A*%
X67290000Y-115540000D03*
D16*
X59690000Y-115540000D03*
%TD*%
D17*
%TO.C,REF\u002A\u002A*%
X81180000Y-119300000D03*
X79180000Y-119300000D03*
X77180000Y-119300000D03*
D18*
X75180000Y-119300000D03*
%TD*%
D19*
%TO.C,REF\u002A\u002A*%
X58390000Y-61340000D03*
D20*
X58390000Y-56260000D03*
%TD*%
D12*
%TO.C,REF\u002A\u002A*%
X79300000Y-83220000D03*
D11*
X79300000Y-85760000D03*
X79300000Y-88300000D03*
X79300000Y-90840000D03*
X79300000Y-93380000D03*
X79300000Y-95920000D03*
X79300000Y-98460000D03*
%TD*%
D12*
%TO.C,REF\u002A\u002A*%
X91420000Y-84870000D03*
D11*
X91420000Y-87410000D03*
X91420000Y-89950000D03*
X91420000Y-92490000D03*
%TD*%
M02*
