%TF.GenerationSoftware,KiCad,Pcbnew,9.0.2*%
%TF.CreationDate,2025-12-05T19:38:36-05:00*%
%TF.ProjectId,PCB,5043422e-6b69-4636-9164-5f7063625858,rev?*%
%TF.SameCoordinates,Original*%
%TF.FileFunction,Legend,Top*%
%TF.FilePolarity,Positive*%
%FSLAX46Y46*%
G04 Gerber Fmt 4.6, Leading zero omitted, Abs format (unit mm)*
G04 Created by KiCad (PCBNEW 9.0.2) date 2025-12-05 19:38:36*
%MOMM*%
%LPD*%
G01*
G04 APERTURE LIST*
%ADD10C,0.100000*%
%ADD11C,0.300000*%
%ADD12C,0.200000*%
%ADD13C,0.150000*%
%ADD14C,0.120000*%
%ADD15C,0.170000*%
%ADD16C,0.500000*%
%ADD17C,0.400000*%
G04 APERTURE END LIST*
D10*
X76743884Y-116981466D02*
X77505789Y-116981466D01*
X77124836Y-117362419D02*
X77124836Y-116600514D01*
D11*
X116449171Y-118891203D02*
X116449171Y-119605489D01*
X116449171Y-119605489D02*
X117949171Y-119605489D01*
X118020600Y-117319774D02*
X116092028Y-118605488D01*
X116449171Y-115962631D02*
X117163457Y-116462631D01*
X116449171Y-116819774D02*
X117949171Y-116819774D01*
X117949171Y-116819774D02*
X117949171Y-116248345D01*
X117949171Y-116248345D02*
X117877742Y-116105488D01*
X117877742Y-116105488D02*
X117806314Y-116034059D01*
X117806314Y-116034059D02*
X117663457Y-115962631D01*
X117663457Y-115962631D02*
X117449171Y-115962631D01*
X117449171Y-115962631D02*
X117306314Y-116034059D01*
X117306314Y-116034059D02*
X117234885Y-116105488D01*
X117234885Y-116105488D02*
X117163457Y-116248345D01*
X117163457Y-116248345D02*
X117163457Y-116819774D01*
D10*
X105462306Y-115399961D02*
X105557544Y-115447580D01*
X105557544Y-115447580D02*
X105700401Y-115447580D01*
X105700401Y-115447580D02*
X105843258Y-115399961D01*
X105843258Y-115399961D02*
X105938496Y-115304723D01*
X105938496Y-115304723D02*
X105986115Y-115209485D01*
X105986115Y-115209485D02*
X106033734Y-115019009D01*
X106033734Y-115019009D02*
X106033734Y-114876152D01*
X106033734Y-114876152D02*
X105986115Y-114685676D01*
X105986115Y-114685676D02*
X105938496Y-114590438D01*
X105938496Y-114590438D02*
X105843258Y-114495200D01*
X105843258Y-114495200D02*
X105700401Y-114447580D01*
X105700401Y-114447580D02*
X105605163Y-114447580D01*
X105605163Y-114447580D02*
X105462306Y-114495200D01*
X105462306Y-114495200D02*
X105414687Y-114542819D01*
X105414687Y-114542819D02*
X105414687Y-114876152D01*
X105414687Y-114876152D02*
X105605163Y-114876152D01*
X104986115Y-114447580D02*
X104986115Y-115447580D01*
X104986115Y-115447580D02*
X104414687Y-114447580D01*
X104414687Y-114447580D02*
X104414687Y-115447580D01*
X103938496Y-114447580D02*
X103938496Y-115447580D01*
X103938496Y-115447580D02*
X103700401Y-115447580D01*
X103700401Y-115447580D02*
X103557544Y-115399961D01*
X103557544Y-115399961D02*
X103462306Y-115304723D01*
X103462306Y-115304723D02*
X103414687Y-115209485D01*
X103414687Y-115209485D02*
X103367068Y-115019009D01*
X103367068Y-115019009D02*
X103367068Y-114876152D01*
X103367068Y-114876152D02*
X103414687Y-114685676D01*
X103414687Y-114685676D02*
X103462306Y-114590438D01*
X103462306Y-114590438D02*
X103557544Y-114495200D01*
X103557544Y-114495200D02*
X103700401Y-114447580D01*
X103700401Y-114447580D02*
X103938496Y-114447580D01*
X73907693Y-119620038D02*
X73812455Y-119572419D01*
X73812455Y-119572419D02*
X73669598Y-119572419D01*
X73669598Y-119572419D02*
X73526741Y-119620038D01*
X73526741Y-119620038D02*
X73431503Y-119715276D01*
X73431503Y-119715276D02*
X73383884Y-119810514D01*
X73383884Y-119810514D02*
X73336265Y-120000990D01*
X73336265Y-120000990D02*
X73336265Y-120143847D01*
X73336265Y-120143847D02*
X73383884Y-120334323D01*
X73383884Y-120334323D02*
X73431503Y-120429561D01*
X73431503Y-120429561D02*
X73526741Y-120524800D01*
X73526741Y-120524800D02*
X73669598Y-120572419D01*
X73669598Y-120572419D02*
X73764836Y-120572419D01*
X73764836Y-120572419D02*
X73907693Y-120524800D01*
X73907693Y-120524800D02*
X73955312Y-120477180D01*
X73955312Y-120477180D02*
X73955312Y-120143847D01*
X73955312Y-120143847D02*
X73764836Y-120143847D01*
X74383884Y-120572419D02*
X74383884Y-119572419D01*
X74383884Y-119572419D02*
X74955312Y-120572419D01*
X74955312Y-120572419D02*
X74955312Y-119572419D01*
X75431503Y-120572419D02*
X75431503Y-119572419D01*
X75431503Y-119572419D02*
X75669598Y-119572419D01*
X75669598Y-119572419D02*
X75812455Y-119620038D01*
X75812455Y-119620038D02*
X75907693Y-119715276D01*
X75907693Y-119715276D02*
X75955312Y-119810514D01*
X75955312Y-119810514D02*
X76002931Y-120000990D01*
X76002931Y-120000990D02*
X76002931Y-120143847D01*
X76002931Y-120143847D02*
X75955312Y-120334323D01*
X75955312Y-120334323D02*
X75907693Y-120429561D01*
X75907693Y-120429561D02*
X75812455Y-120524800D01*
X75812455Y-120524800D02*
X75669598Y-120572419D01*
X75669598Y-120572419D02*
X75431503Y-120572419D01*
D11*
X58659774Y-63400828D02*
X58159774Y-64900828D01*
X58159774Y-64900828D02*
X57659774Y-63400828D01*
X56302632Y-64757971D02*
X56374060Y-64829400D01*
X56374060Y-64829400D02*
X56588346Y-64900828D01*
X56588346Y-64900828D02*
X56731203Y-64900828D01*
X56731203Y-64900828D02*
X56945489Y-64829400D01*
X56945489Y-64829400D02*
X57088346Y-64686542D01*
X57088346Y-64686542D02*
X57159775Y-64543685D01*
X57159775Y-64543685D02*
X57231203Y-64257971D01*
X57231203Y-64257971D02*
X57231203Y-64043685D01*
X57231203Y-64043685D02*
X57159775Y-63757971D01*
X57159775Y-63757971D02*
X57088346Y-63615114D01*
X57088346Y-63615114D02*
X56945489Y-63472257D01*
X56945489Y-63472257D02*
X56731203Y-63400828D01*
X56731203Y-63400828D02*
X56588346Y-63400828D01*
X56588346Y-63400828D02*
X56374060Y-63472257D01*
X56374060Y-63472257D02*
X56302632Y-63543685D01*
X54802632Y-64757971D02*
X54874060Y-64829400D01*
X54874060Y-64829400D02*
X55088346Y-64900828D01*
X55088346Y-64900828D02*
X55231203Y-64900828D01*
X55231203Y-64900828D02*
X55445489Y-64829400D01*
X55445489Y-64829400D02*
X55588346Y-64686542D01*
X55588346Y-64686542D02*
X55659775Y-64543685D01*
X55659775Y-64543685D02*
X55731203Y-64257971D01*
X55731203Y-64257971D02*
X55731203Y-64043685D01*
X55731203Y-64043685D02*
X55659775Y-63757971D01*
X55659775Y-63757971D02*
X55588346Y-63615114D01*
X55588346Y-63615114D02*
X55445489Y-63472257D01*
X55445489Y-63472257D02*
X55231203Y-63400828D01*
X55231203Y-63400828D02*
X55088346Y-63400828D01*
X55088346Y-63400828D02*
X54874060Y-63472257D01*
X54874060Y-63472257D02*
X54802632Y-63543685D01*
D12*
X52200000Y-75600000D02*
X82200000Y-75600000D01*
X82200000Y-105600000D01*
X52200000Y-105600000D01*
X52200000Y-75600000D01*
D10*
X65957693Y-121500038D02*
X65862455Y-121452419D01*
X65862455Y-121452419D02*
X65719598Y-121452419D01*
X65719598Y-121452419D02*
X65576741Y-121500038D01*
X65576741Y-121500038D02*
X65481503Y-121595276D01*
X65481503Y-121595276D02*
X65433884Y-121690514D01*
X65433884Y-121690514D02*
X65386265Y-121880990D01*
X65386265Y-121880990D02*
X65386265Y-122023847D01*
X65386265Y-122023847D02*
X65433884Y-122214323D01*
X65433884Y-122214323D02*
X65481503Y-122309561D01*
X65481503Y-122309561D02*
X65576741Y-122404800D01*
X65576741Y-122404800D02*
X65719598Y-122452419D01*
X65719598Y-122452419D02*
X65814836Y-122452419D01*
X65814836Y-122452419D02*
X65957693Y-122404800D01*
X65957693Y-122404800D02*
X66005312Y-122357180D01*
X66005312Y-122357180D02*
X66005312Y-122023847D01*
X66005312Y-122023847D02*
X65814836Y-122023847D01*
X66433884Y-122452419D02*
X66433884Y-121452419D01*
X66433884Y-121452419D02*
X67005312Y-122452419D01*
X67005312Y-122452419D02*
X67005312Y-121452419D01*
X67481503Y-122452419D02*
X67481503Y-121452419D01*
X67481503Y-121452419D02*
X67719598Y-121452419D01*
X67719598Y-121452419D02*
X67862455Y-121500038D01*
X67862455Y-121500038D02*
X67957693Y-121595276D01*
X67957693Y-121595276D02*
X68005312Y-121690514D01*
X68005312Y-121690514D02*
X68052931Y-121880990D01*
X68052931Y-121880990D02*
X68052931Y-122023847D01*
X68052931Y-122023847D02*
X68005312Y-122214323D01*
X68005312Y-122214323D02*
X67957693Y-122309561D01*
X67957693Y-122309561D02*
X67862455Y-122404800D01*
X67862455Y-122404800D02*
X67719598Y-122452419D01*
X67719598Y-122452419D02*
X67481503Y-122452419D01*
X75627693Y-98020038D02*
X75532455Y-97972419D01*
X75532455Y-97972419D02*
X75389598Y-97972419D01*
X75389598Y-97972419D02*
X75246741Y-98020038D01*
X75246741Y-98020038D02*
X75151503Y-98115276D01*
X75151503Y-98115276D02*
X75103884Y-98210514D01*
X75103884Y-98210514D02*
X75056265Y-98400990D01*
X75056265Y-98400990D02*
X75056265Y-98543847D01*
X75056265Y-98543847D02*
X75103884Y-98734323D01*
X75103884Y-98734323D02*
X75151503Y-98829561D01*
X75151503Y-98829561D02*
X75246741Y-98924800D01*
X75246741Y-98924800D02*
X75389598Y-98972419D01*
X75389598Y-98972419D02*
X75484836Y-98972419D01*
X75484836Y-98972419D02*
X75627693Y-98924800D01*
X75627693Y-98924800D02*
X75675312Y-98877180D01*
X75675312Y-98877180D02*
X75675312Y-98543847D01*
X75675312Y-98543847D02*
X75484836Y-98543847D01*
X76103884Y-98972419D02*
X76103884Y-97972419D01*
X76103884Y-97972419D02*
X76675312Y-98972419D01*
X76675312Y-98972419D02*
X76675312Y-97972419D01*
X77151503Y-98972419D02*
X77151503Y-97972419D01*
X77151503Y-97972419D02*
X77389598Y-97972419D01*
X77389598Y-97972419D02*
X77532455Y-98020038D01*
X77532455Y-98020038D02*
X77627693Y-98115276D01*
X77627693Y-98115276D02*
X77675312Y-98210514D01*
X77675312Y-98210514D02*
X77722931Y-98400990D01*
X77722931Y-98400990D02*
X77722931Y-98543847D01*
X77722931Y-98543847D02*
X77675312Y-98734323D01*
X77675312Y-98734323D02*
X77627693Y-98829561D01*
X77627693Y-98829561D02*
X77532455Y-98924800D01*
X77532455Y-98924800D02*
X77389598Y-98972419D01*
X77389598Y-98972419D02*
X77151503Y-98972419D01*
X82927693Y-85520038D02*
X82832455Y-85472419D01*
X82832455Y-85472419D02*
X82689598Y-85472419D01*
X82689598Y-85472419D02*
X82546741Y-85520038D01*
X82546741Y-85520038D02*
X82451503Y-85615276D01*
X82451503Y-85615276D02*
X82403884Y-85710514D01*
X82403884Y-85710514D02*
X82356265Y-85900990D01*
X82356265Y-85900990D02*
X82356265Y-86043847D01*
X82356265Y-86043847D02*
X82403884Y-86234323D01*
X82403884Y-86234323D02*
X82451503Y-86329561D01*
X82451503Y-86329561D02*
X82546741Y-86424800D01*
X82546741Y-86424800D02*
X82689598Y-86472419D01*
X82689598Y-86472419D02*
X82784836Y-86472419D01*
X82784836Y-86472419D02*
X82927693Y-86424800D01*
X82927693Y-86424800D02*
X82975312Y-86377180D01*
X82975312Y-86377180D02*
X82975312Y-86043847D01*
X82975312Y-86043847D02*
X82784836Y-86043847D01*
X83403884Y-86472419D02*
X83403884Y-85472419D01*
X83403884Y-85472419D02*
X83975312Y-86472419D01*
X83975312Y-86472419D02*
X83975312Y-85472419D01*
X84451503Y-86472419D02*
X84451503Y-85472419D01*
X84451503Y-85472419D02*
X84689598Y-85472419D01*
X84689598Y-85472419D02*
X84832455Y-85520038D01*
X84832455Y-85520038D02*
X84927693Y-85615276D01*
X84927693Y-85615276D02*
X84975312Y-85710514D01*
X84975312Y-85710514D02*
X85022931Y-85900990D01*
X85022931Y-85900990D02*
X85022931Y-86043847D01*
X85022931Y-86043847D02*
X84975312Y-86234323D01*
X84975312Y-86234323D02*
X84927693Y-86329561D01*
X84927693Y-86329561D02*
X84832455Y-86424800D01*
X84832455Y-86424800D02*
X84689598Y-86472419D01*
X84689598Y-86472419D02*
X84451503Y-86472419D01*
X86827693Y-86320038D02*
X86732455Y-86272419D01*
X86732455Y-86272419D02*
X86589598Y-86272419D01*
X86589598Y-86272419D02*
X86446741Y-86320038D01*
X86446741Y-86320038D02*
X86351503Y-86415276D01*
X86351503Y-86415276D02*
X86303884Y-86510514D01*
X86303884Y-86510514D02*
X86256265Y-86700990D01*
X86256265Y-86700990D02*
X86256265Y-86843847D01*
X86256265Y-86843847D02*
X86303884Y-87034323D01*
X86303884Y-87034323D02*
X86351503Y-87129561D01*
X86351503Y-87129561D02*
X86446741Y-87224800D01*
X86446741Y-87224800D02*
X86589598Y-87272419D01*
X86589598Y-87272419D02*
X86684836Y-87272419D01*
X86684836Y-87272419D02*
X86827693Y-87224800D01*
X86827693Y-87224800D02*
X86875312Y-87177180D01*
X86875312Y-87177180D02*
X86875312Y-86843847D01*
X86875312Y-86843847D02*
X86684836Y-86843847D01*
X87303884Y-87272419D02*
X87303884Y-86272419D01*
X87303884Y-86272419D02*
X87875312Y-87272419D01*
X87875312Y-87272419D02*
X87875312Y-86272419D01*
X88351503Y-87272419D02*
X88351503Y-86272419D01*
X88351503Y-86272419D02*
X88589598Y-86272419D01*
X88589598Y-86272419D02*
X88732455Y-86320038D01*
X88732455Y-86320038D02*
X88827693Y-86415276D01*
X88827693Y-86415276D02*
X88875312Y-86510514D01*
X88875312Y-86510514D02*
X88922931Y-86700990D01*
X88922931Y-86700990D02*
X88922931Y-86843847D01*
X88922931Y-86843847D02*
X88875312Y-87034323D01*
X88875312Y-87034323D02*
X88827693Y-87129561D01*
X88827693Y-87129561D02*
X88732455Y-87224800D01*
X88732455Y-87224800D02*
X88589598Y-87272419D01*
X88589598Y-87272419D02*
X88351503Y-87272419D01*
D12*
X88900000Y-75500000D02*
X123900000Y-75500000D01*
X123900000Y-105500000D01*
X88900000Y-105500000D01*
X88900000Y-75500000D01*
D13*
X71084819Y-84543333D02*
X70608628Y-84876666D01*
X71084819Y-85114761D02*
X70084819Y-85114761D01*
X70084819Y-85114761D02*
X70084819Y-84733809D01*
X70084819Y-84733809D02*
X70132438Y-84638571D01*
X70132438Y-84638571D02*
X70180057Y-84590952D01*
X70180057Y-84590952D02*
X70275295Y-84543333D01*
X70275295Y-84543333D02*
X70418152Y-84543333D01*
X70418152Y-84543333D02*
X70513390Y-84590952D01*
X70513390Y-84590952D02*
X70561009Y-84638571D01*
X70561009Y-84638571D02*
X70608628Y-84733809D01*
X70608628Y-84733809D02*
X70608628Y-85114761D01*
X70561009Y-84114761D02*
X70561009Y-83781428D01*
X71084819Y-83638571D02*
X71084819Y-84114761D01*
X71084819Y-84114761D02*
X70084819Y-84114761D01*
X70084819Y-84114761D02*
X70084819Y-83638571D01*
X70561009Y-82876666D02*
X70561009Y-83209999D01*
X71084819Y-83209999D02*
X70084819Y-83209999D01*
X70084819Y-83209999D02*
X70084819Y-82733809D01*
X70084819Y-82209999D02*
X70322914Y-82209999D01*
X70227676Y-82448094D02*
X70322914Y-82209999D01*
X70322914Y-82209999D02*
X70227676Y-81971904D01*
X70513390Y-82352856D02*
X70322914Y-82209999D01*
X70322914Y-82209999D02*
X70513390Y-82067142D01*
X70084819Y-81448094D02*
X70322914Y-81448094D01*
X70227676Y-81686189D02*
X70322914Y-81448094D01*
X70322914Y-81448094D02*
X70227676Y-81209999D01*
X70513390Y-81590951D02*
X70322914Y-81448094D01*
X70322914Y-81448094D02*
X70513390Y-81305237D01*
X65534819Y-88653333D02*
X65058628Y-88986666D01*
X65534819Y-89224761D02*
X64534819Y-89224761D01*
X64534819Y-89224761D02*
X64534819Y-88843809D01*
X64534819Y-88843809D02*
X64582438Y-88748571D01*
X64582438Y-88748571D02*
X64630057Y-88700952D01*
X64630057Y-88700952D02*
X64725295Y-88653333D01*
X64725295Y-88653333D02*
X64868152Y-88653333D01*
X64868152Y-88653333D02*
X64963390Y-88700952D01*
X64963390Y-88700952D02*
X65011009Y-88748571D01*
X65011009Y-88748571D02*
X65058628Y-88843809D01*
X65058628Y-88843809D02*
X65058628Y-89224761D01*
X65011009Y-88224761D02*
X65011009Y-87891428D01*
X65534819Y-87748571D02*
X65534819Y-88224761D01*
X65534819Y-88224761D02*
X64534819Y-88224761D01*
X64534819Y-88224761D02*
X64534819Y-87748571D01*
X65011009Y-86986666D02*
X65011009Y-87319999D01*
X65534819Y-87319999D02*
X64534819Y-87319999D01*
X64534819Y-87319999D02*
X64534819Y-86843809D01*
X64534819Y-86319999D02*
X64772914Y-86319999D01*
X64677676Y-86558094D02*
X64772914Y-86319999D01*
X64772914Y-86319999D02*
X64677676Y-86081904D01*
X64963390Y-86462856D02*
X64772914Y-86319999D01*
X64772914Y-86319999D02*
X64963390Y-86177142D01*
X64534819Y-85558094D02*
X64772914Y-85558094D01*
X64677676Y-85796189D02*
X64772914Y-85558094D01*
X64772914Y-85558094D02*
X64677676Y-85319999D01*
X64963390Y-85700951D02*
X64772914Y-85558094D01*
X64772914Y-85558094D02*
X64963390Y-85415237D01*
X60324819Y-97593333D02*
X59848628Y-97926666D01*
X60324819Y-98164761D02*
X59324819Y-98164761D01*
X59324819Y-98164761D02*
X59324819Y-97783809D01*
X59324819Y-97783809D02*
X59372438Y-97688571D01*
X59372438Y-97688571D02*
X59420057Y-97640952D01*
X59420057Y-97640952D02*
X59515295Y-97593333D01*
X59515295Y-97593333D02*
X59658152Y-97593333D01*
X59658152Y-97593333D02*
X59753390Y-97640952D01*
X59753390Y-97640952D02*
X59801009Y-97688571D01*
X59801009Y-97688571D02*
X59848628Y-97783809D01*
X59848628Y-97783809D02*
X59848628Y-98164761D01*
X59801009Y-97164761D02*
X59801009Y-96831428D01*
X60324819Y-96688571D02*
X60324819Y-97164761D01*
X60324819Y-97164761D02*
X59324819Y-97164761D01*
X59324819Y-97164761D02*
X59324819Y-96688571D01*
X59801009Y-95926666D02*
X59801009Y-96259999D01*
X60324819Y-96259999D02*
X59324819Y-96259999D01*
X59324819Y-96259999D02*
X59324819Y-95783809D01*
X59324819Y-95259999D02*
X59562914Y-95259999D01*
X59467676Y-95498094D02*
X59562914Y-95259999D01*
X59562914Y-95259999D02*
X59467676Y-95021904D01*
X59753390Y-95402856D02*
X59562914Y-95259999D01*
X59562914Y-95259999D02*
X59753390Y-95117142D01*
X59324819Y-94498094D02*
X59562914Y-94498094D01*
X59467676Y-94736189D02*
X59562914Y-94498094D01*
X59562914Y-94498094D02*
X59467676Y-94259999D01*
X59753390Y-94640951D02*
X59562914Y-94498094D01*
X59562914Y-94498094D02*
X59753390Y-94355237D01*
X119736666Y-110914819D02*
X119403333Y-110438628D01*
X119165238Y-110914819D02*
X119165238Y-109914819D01*
X119165238Y-109914819D02*
X119546190Y-109914819D01*
X119546190Y-109914819D02*
X119641428Y-109962438D01*
X119641428Y-109962438D02*
X119689047Y-110010057D01*
X119689047Y-110010057D02*
X119736666Y-110105295D01*
X119736666Y-110105295D02*
X119736666Y-110248152D01*
X119736666Y-110248152D02*
X119689047Y-110343390D01*
X119689047Y-110343390D02*
X119641428Y-110391009D01*
X119641428Y-110391009D02*
X119546190Y-110438628D01*
X119546190Y-110438628D02*
X119165238Y-110438628D01*
X120165238Y-110391009D02*
X120498571Y-110391009D01*
X120641428Y-110914819D02*
X120165238Y-110914819D01*
X120165238Y-110914819D02*
X120165238Y-109914819D01*
X120165238Y-109914819D02*
X120641428Y-109914819D01*
X121403333Y-110391009D02*
X121070000Y-110391009D01*
X121070000Y-110914819D02*
X121070000Y-109914819D01*
X121070000Y-109914819D02*
X121546190Y-109914819D01*
X122070000Y-109914819D02*
X122070000Y-110152914D01*
X121831905Y-110057676D02*
X122070000Y-110152914D01*
X122070000Y-110152914D02*
X122308095Y-110057676D01*
X121927143Y-110343390D02*
X122070000Y-110152914D01*
X122070000Y-110152914D02*
X122212857Y-110343390D01*
X122831905Y-109914819D02*
X122831905Y-110152914D01*
X122593810Y-110057676D02*
X122831905Y-110152914D01*
X122831905Y-110152914D02*
X123070000Y-110057676D01*
X122689048Y-110343390D02*
X122831905Y-110152914D01*
X122831905Y-110152914D02*
X122974762Y-110343390D01*
X112236666Y-110914819D02*
X111903333Y-110438628D01*
X111665238Y-110914819D02*
X111665238Y-109914819D01*
X111665238Y-109914819D02*
X112046190Y-109914819D01*
X112046190Y-109914819D02*
X112141428Y-109962438D01*
X112141428Y-109962438D02*
X112189047Y-110010057D01*
X112189047Y-110010057D02*
X112236666Y-110105295D01*
X112236666Y-110105295D02*
X112236666Y-110248152D01*
X112236666Y-110248152D02*
X112189047Y-110343390D01*
X112189047Y-110343390D02*
X112141428Y-110391009D01*
X112141428Y-110391009D02*
X112046190Y-110438628D01*
X112046190Y-110438628D02*
X111665238Y-110438628D01*
X112665238Y-110391009D02*
X112998571Y-110391009D01*
X113141428Y-110914819D02*
X112665238Y-110914819D01*
X112665238Y-110914819D02*
X112665238Y-109914819D01*
X112665238Y-109914819D02*
X113141428Y-109914819D01*
X113903333Y-110391009D02*
X113570000Y-110391009D01*
X113570000Y-110914819D02*
X113570000Y-109914819D01*
X113570000Y-109914819D02*
X114046190Y-109914819D01*
X114570000Y-109914819D02*
X114570000Y-110152914D01*
X114331905Y-110057676D02*
X114570000Y-110152914D01*
X114570000Y-110152914D02*
X114808095Y-110057676D01*
X114427143Y-110343390D02*
X114570000Y-110152914D01*
X114570000Y-110152914D02*
X114712857Y-110343390D01*
X115331905Y-109914819D02*
X115331905Y-110152914D01*
X115093810Y-110057676D02*
X115331905Y-110152914D01*
X115331905Y-110152914D02*
X115570000Y-110057676D01*
X115189048Y-110343390D02*
X115331905Y-110152914D01*
X115331905Y-110152914D02*
X115474762Y-110343390D01*
X110524819Y-110613333D02*
X110048628Y-110946666D01*
X110524819Y-111184761D02*
X109524819Y-111184761D01*
X109524819Y-111184761D02*
X109524819Y-110803809D01*
X109524819Y-110803809D02*
X109572438Y-110708571D01*
X109572438Y-110708571D02*
X109620057Y-110660952D01*
X109620057Y-110660952D02*
X109715295Y-110613333D01*
X109715295Y-110613333D02*
X109858152Y-110613333D01*
X109858152Y-110613333D02*
X109953390Y-110660952D01*
X109953390Y-110660952D02*
X110001009Y-110708571D01*
X110001009Y-110708571D02*
X110048628Y-110803809D01*
X110048628Y-110803809D02*
X110048628Y-111184761D01*
X110001009Y-110184761D02*
X110001009Y-109851428D01*
X110524819Y-109708571D02*
X110524819Y-110184761D01*
X110524819Y-110184761D02*
X109524819Y-110184761D01*
X109524819Y-110184761D02*
X109524819Y-109708571D01*
X110001009Y-108946666D02*
X110001009Y-109279999D01*
X110524819Y-109279999D02*
X109524819Y-109279999D01*
X109524819Y-109279999D02*
X109524819Y-108803809D01*
X109524819Y-108279999D02*
X109762914Y-108279999D01*
X109667676Y-108518094D02*
X109762914Y-108279999D01*
X109762914Y-108279999D02*
X109667676Y-108041904D01*
X109953390Y-108422856D02*
X109762914Y-108279999D01*
X109762914Y-108279999D02*
X109953390Y-108137142D01*
X109524819Y-107518094D02*
X109762914Y-107518094D01*
X109667676Y-107756189D02*
X109762914Y-107518094D01*
X109762914Y-107518094D02*
X109667676Y-107279999D01*
X109953390Y-107660951D02*
X109762914Y-107518094D01*
X109762914Y-107518094D02*
X109953390Y-107375237D01*
X94284819Y-113058094D02*
X95284819Y-112391428D01*
X94284819Y-112391428D02*
X95284819Y-113058094D01*
X95189580Y-111439047D02*
X95237200Y-111486666D01*
X95237200Y-111486666D02*
X95284819Y-111629523D01*
X95284819Y-111629523D02*
X95284819Y-111724761D01*
X95284819Y-111724761D02*
X95237200Y-111867618D01*
X95237200Y-111867618D02*
X95141961Y-111962856D01*
X95141961Y-111962856D02*
X95046723Y-112010475D01*
X95046723Y-112010475D02*
X94856247Y-112058094D01*
X94856247Y-112058094D02*
X94713390Y-112058094D01*
X94713390Y-112058094D02*
X94522914Y-112010475D01*
X94522914Y-112010475D02*
X94427676Y-111962856D01*
X94427676Y-111962856D02*
X94332438Y-111867618D01*
X94332438Y-111867618D02*
X94284819Y-111724761D01*
X94284819Y-111724761D02*
X94284819Y-111629523D01*
X94284819Y-111629523D02*
X94332438Y-111486666D01*
X94332438Y-111486666D02*
X94380057Y-111439047D01*
X95284819Y-110534285D02*
X95284819Y-111010475D01*
X95284819Y-111010475D02*
X94284819Y-111010475D01*
X90204819Y-112724761D02*
X89204819Y-112724761D01*
X90204819Y-112248571D02*
X89204819Y-112248571D01*
X89204819Y-112248571D02*
X90204819Y-111677143D01*
X90204819Y-111677143D02*
X89204819Y-111677143D01*
X89204819Y-111343809D02*
X89204819Y-110772381D01*
X90204819Y-111058095D02*
X89204819Y-111058095D01*
X100317200Y-113034285D02*
X100364819Y-112891428D01*
X100364819Y-112891428D02*
X100364819Y-112653333D01*
X100364819Y-112653333D02*
X100317200Y-112558095D01*
X100317200Y-112558095D02*
X100269580Y-112510476D01*
X100269580Y-112510476D02*
X100174342Y-112462857D01*
X100174342Y-112462857D02*
X100079104Y-112462857D01*
X100079104Y-112462857D02*
X99983866Y-112510476D01*
X99983866Y-112510476D02*
X99936247Y-112558095D01*
X99936247Y-112558095D02*
X99888628Y-112653333D01*
X99888628Y-112653333D02*
X99841009Y-112843809D01*
X99841009Y-112843809D02*
X99793390Y-112939047D01*
X99793390Y-112939047D02*
X99745771Y-112986666D01*
X99745771Y-112986666D02*
X99650533Y-113034285D01*
X99650533Y-113034285D02*
X99555295Y-113034285D01*
X99555295Y-113034285D02*
X99460057Y-112986666D01*
X99460057Y-112986666D02*
X99412438Y-112939047D01*
X99412438Y-112939047D02*
X99364819Y-112843809D01*
X99364819Y-112843809D02*
X99364819Y-112605714D01*
X99364819Y-112605714D02*
X99412438Y-112462857D01*
X100364819Y-112034285D02*
X99364819Y-112034285D01*
X99364819Y-112034285D02*
X99364819Y-111796190D01*
X99364819Y-111796190D02*
X99412438Y-111653333D01*
X99412438Y-111653333D02*
X99507676Y-111558095D01*
X99507676Y-111558095D02*
X99602914Y-111510476D01*
X99602914Y-111510476D02*
X99793390Y-111462857D01*
X99793390Y-111462857D02*
X99936247Y-111462857D01*
X99936247Y-111462857D02*
X100126723Y-111510476D01*
X100126723Y-111510476D02*
X100221961Y-111558095D01*
X100221961Y-111558095D02*
X100317200Y-111653333D01*
X100317200Y-111653333D02*
X100364819Y-111796190D01*
X100364819Y-111796190D02*
X100364819Y-112034285D01*
X100079104Y-111081904D02*
X100079104Y-110605714D01*
X100364819Y-111177142D02*
X99364819Y-110843809D01*
X99364819Y-110843809D02*
X100364819Y-110510476D01*
X92459104Y-113058094D02*
X92459104Y-112581904D01*
X92744819Y-113153332D02*
X91744819Y-112819999D01*
X91744819Y-112819999D02*
X92744819Y-112486666D01*
X92744819Y-112153332D02*
X91744819Y-112153332D01*
X91744819Y-112153332D02*
X91744819Y-111915237D01*
X91744819Y-111915237D02*
X91792438Y-111772380D01*
X91792438Y-111772380D02*
X91887676Y-111677142D01*
X91887676Y-111677142D02*
X91982914Y-111629523D01*
X91982914Y-111629523D02*
X92173390Y-111581904D01*
X92173390Y-111581904D02*
X92316247Y-111581904D01*
X92316247Y-111581904D02*
X92506723Y-111629523D01*
X92506723Y-111629523D02*
X92601961Y-111677142D01*
X92601961Y-111677142D02*
X92697200Y-111772380D01*
X92697200Y-111772380D02*
X92744819Y-111915237D01*
X92744819Y-111915237D02*
X92744819Y-112153332D01*
X92744819Y-111153332D02*
X91744819Y-111153332D01*
X91744819Y-111153332D02*
X91744819Y-110915237D01*
X91744819Y-110915237D02*
X91792438Y-110772380D01*
X91792438Y-110772380D02*
X91887676Y-110677142D01*
X91887676Y-110677142D02*
X91982914Y-110629523D01*
X91982914Y-110629523D02*
X92173390Y-110581904D01*
X92173390Y-110581904D02*
X92316247Y-110581904D01*
X92316247Y-110581904D02*
X92506723Y-110629523D01*
X92506723Y-110629523D02*
X92601961Y-110677142D01*
X92601961Y-110677142D02*
X92697200Y-110772380D01*
X92697200Y-110772380D02*
X92744819Y-110915237D01*
X92744819Y-110915237D02*
X92744819Y-111153332D01*
X106984819Y-113153332D02*
X107984819Y-112819999D01*
X107984819Y-112819999D02*
X106984819Y-112486666D01*
X107889580Y-111581904D02*
X107937200Y-111629523D01*
X107937200Y-111629523D02*
X107984819Y-111772380D01*
X107984819Y-111772380D02*
X107984819Y-111867618D01*
X107984819Y-111867618D02*
X107937200Y-112010475D01*
X107937200Y-112010475D02*
X107841961Y-112105713D01*
X107841961Y-112105713D02*
X107746723Y-112153332D01*
X107746723Y-112153332D02*
X107556247Y-112200951D01*
X107556247Y-112200951D02*
X107413390Y-112200951D01*
X107413390Y-112200951D02*
X107222914Y-112153332D01*
X107222914Y-112153332D02*
X107127676Y-112105713D01*
X107127676Y-112105713D02*
X107032438Y-112010475D01*
X107032438Y-112010475D02*
X106984819Y-111867618D01*
X106984819Y-111867618D02*
X106984819Y-111772380D01*
X106984819Y-111772380D02*
X107032438Y-111629523D01*
X107032438Y-111629523D02*
X107080057Y-111581904D01*
X107889580Y-110581904D02*
X107937200Y-110629523D01*
X107937200Y-110629523D02*
X107984819Y-110772380D01*
X107984819Y-110772380D02*
X107984819Y-110867618D01*
X107984819Y-110867618D02*
X107937200Y-111010475D01*
X107937200Y-111010475D02*
X107841961Y-111105713D01*
X107841961Y-111105713D02*
X107746723Y-111153332D01*
X107746723Y-111153332D02*
X107556247Y-111200951D01*
X107556247Y-111200951D02*
X107413390Y-111200951D01*
X107413390Y-111200951D02*
X107222914Y-111153332D01*
X107222914Y-111153332D02*
X107127676Y-111105713D01*
X107127676Y-111105713D02*
X107032438Y-111010475D01*
X107032438Y-111010475D02*
X106984819Y-110867618D01*
X106984819Y-110867618D02*
X106984819Y-110772380D01*
X106984819Y-110772380D02*
X107032438Y-110629523D01*
X107032438Y-110629523D02*
X107080057Y-110581904D01*
X104492438Y-112581904D02*
X104444819Y-112677142D01*
X104444819Y-112677142D02*
X104444819Y-112819999D01*
X104444819Y-112819999D02*
X104492438Y-112962856D01*
X104492438Y-112962856D02*
X104587676Y-113058094D01*
X104587676Y-113058094D02*
X104682914Y-113105713D01*
X104682914Y-113105713D02*
X104873390Y-113153332D01*
X104873390Y-113153332D02*
X105016247Y-113153332D01*
X105016247Y-113153332D02*
X105206723Y-113105713D01*
X105206723Y-113105713D02*
X105301961Y-113058094D01*
X105301961Y-113058094D02*
X105397200Y-112962856D01*
X105397200Y-112962856D02*
X105444819Y-112819999D01*
X105444819Y-112819999D02*
X105444819Y-112724761D01*
X105444819Y-112724761D02*
X105397200Y-112581904D01*
X105397200Y-112581904D02*
X105349580Y-112534285D01*
X105349580Y-112534285D02*
X105016247Y-112534285D01*
X105016247Y-112534285D02*
X105016247Y-112724761D01*
X105444819Y-112105713D02*
X104444819Y-112105713D01*
X104444819Y-112105713D02*
X105444819Y-111534285D01*
X105444819Y-111534285D02*
X104444819Y-111534285D01*
X105444819Y-111058094D02*
X104444819Y-111058094D01*
X104444819Y-111058094D02*
X104444819Y-110819999D01*
X104444819Y-110819999D02*
X104492438Y-110677142D01*
X104492438Y-110677142D02*
X104587676Y-110581904D01*
X104587676Y-110581904D02*
X104682914Y-110534285D01*
X104682914Y-110534285D02*
X104873390Y-110486666D01*
X104873390Y-110486666D02*
X105016247Y-110486666D01*
X105016247Y-110486666D02*
X105206723Y-110534285D01*
X105206723Y-110534285D02*
X105301961Y-110581904D01*
X105301961Y-110581904D02*
X105397200Y-110677142D01*
X105397200Y-110677142D02*
X105444819Y-110819999D01*
X105444819Y-110819999D02*
X105444819Y-111058094D01*
X96824819Y-113081904D02*
X97824819Y-112415238D01*
X96824819Y-112415238D02*
X97824819Y-113081904D01*
X97824819Y-112034285D02*
X96824819Y-112034285D01*
X96824819Y-112034285D02*
X96824819Y-111796190D01*
X96824819Y-111796190D02*
X96872438Y-111653333D01*
X96872438Y-111653333D02*
X96967676Y-111558095D01*
X96967676Y-111558095D02*
X97062914Y-111510476D01*
X97062914Y-111510476D02*
X97253390Y-111462857D01*
X97253390Y-111462857D02*
X97396247Y-111462857D01*
X97396247Y-111462857D02*
X97586723Y-111510476D01*
X97586723Y-111510476D02*
X97681961Y-111558095D01*
X97681961Y-111558095D02*
X97777200Y-111653333D01*
X97777200Y-111653333D02*
X97824819Y-111796190D01*
X97824819Y-111796190D02*
X97824819Y-112034285D01*
X97539104Y-111081904D02*
X97539104Y-110605714D01*
X97824819Y-111177142D02*
X96824819Y-110843809D01*
X96824819Y-110843809D02*
X97824819Y-110510476D01*
X102857200Y-113010475D02*
X102904819Y-112867618D01*
X102904819Y-112867618D02*
X102904819Y-112629523D01*
X102904819Y-112629523D02*
X102857200Y-112534285D01*
X102857200Y-112534285D02*
X102809580Y-112486666D01*
X102809580Y-112486666D02*
X102714342Y-112439047D01*
X102714342Y-112439047D02*
X102619104Y-112439047D01*
X102619104Y-112439047D02*
X102523866Y-112486666D01*
X102523866Y-112486666D02*
X102476247Y-112534285D01*
X102476247Y-112534285D02*
X102428628Y-112629523D01*
X102428628Y-112629523D02*
X102381009Y-112819999D01*
X102381009Y-112819999D02*
X102333390Y-112915237D01*
X102333390Y-112915237D02*
X102285771Y-112962856D01*
X102285771Y-112962856D02*
X102190533Y-113010475D01*
X102190533Y-113010475D02*
X102095295Y-113010475D01*
X102095295Y-113010475D02*
X102000057Y-112962856D01*
X102000057Y-112962856D02*
X101952438Y-112915237D01*
X101952438Y-112915237D02*
X101904819Y-112819999D01*
X101904819Y-112819999D02*
X101904819Y-112581904D01*
X101904819Y-112581904D02*
X101952438Y-112439047D01*
X102809580Y-111439047D02*
X102857200Y-111486666D01*
X102857200Y-111486666D02*
X102904819Y-111629523D01*
X102904819Y-111629523D02*
X102904819Y-111724761D01*
X102904819Y-111724761D02*
X102857200Y-111867618D01*
X102857200Y-111867618D02*
X102761961Y-111962856D01*
X102761961Y-111962856D02*
X102666723Y-112010475D01*
X102666723Y-112010475D02*
X102476247Y-112058094D01*
X102476247Y-112058094D02*
X102333390Y-112058094D01*
X102333390Y-112058094D02*
X102142914Y-112010475D01*
X102142914Y-112010475D02*
X102047676Y-111962856D01*
X102047676Y-111962856D02*
X101952438Y-111867618D01*
X101952438Y-111867618D02*
X101904819Y-111724761D01*
X101904819Y-111724761D02*
X101904819Y-111629523D01*
X101904819Y-111629523D02*
X101952438Y-111486666D01*
X101952438Y-111486666D02*
X102000057Y-111439047D01*
X102904819Y-110534285D02*
X102904819Y-111010475D01*
X102904819Y-111010475D02*
X101904819Y-111010475D01*
X59299048Y-118113866D02*
X60060953Y-118113866D01*
X59680000Y-118494819D02*
X59680000Y-117732914D01*
X73524819Y-120633333D02*
X73048628Y-120966666D01*
X73524819Y-121204761D02*
X72524819Y-121204761D01*
X72524819Y-121204761D02*
X72524819Y-120823809D01*
X72524819Y-120823809D02*
X72572438Y-120728571D01*
X72572438Y-120728571D02*
X72620057Y-120680952D01*
X72620057Y-120680952D02*
X72715295Y-120633333D01*
X72715295Y-120633333D02*
X72858152Y-120633333D01*
X72858152Y-120633333D02*
X72953390Y-120680952D01*
X72953390Y-120680952D02*
X73001009Y-120728571D01*
X73001009Y-120728571D02*
X73048628Y-120823809D01*
X73048628Y-120823809D02*
X73048628Y-121204761D01*
X73001009Y-120204761D02*
X73001009Y-119871428D01*
X73524819Y-119728571D02*
X73524819Y-120204761D01*
X73524819Y-120204761D02*
X72524819Y-120204761D01*
X72524819Y-120204761D02*
X72524819Y-119728571D01*
X73001009Y-118966666D02*
X73001009Y-119299999D01*
X73524819Y-119299999D02*
X72524819Y-119299999D01*
X72524819Y-119299999D02*
X72524819Y-118823809D01*
X72524819Y-118299999D02*
X72762914Y-118299999D01*
X72667676Y-118538094D02*
X72762914Y-118299999D01*
X72762914Y-118299999D02*
X72667676Y-118061904D01*
X72953390Y-118442856D02*
X72762914Y-118299999D01*
X72762914Y-118299999D02*
X72953390Y-118157142D01*
X72524819Y-117538094D02*
X72762914Y-117538094D01*
X72667676Y-117776189D02*
X72762914Y-117538094D01*
X72762914Y-117538094D02*
X72667676Y-117299999D01*
X72953390Y-117680951D02*
X72762914Y-117538094D01*
X72762914Y-117538094D02*
X72953390Y-117395237D01*
X77966666Y-81294819D02*
X77633333Y-80818628D01*
X77395238Y-81294819D02*
X77395238Y-80294819D01*
X77395238Y-80294819D02*
X77776190Y-80294819D01*
X77776190Y-80294819D02*
X77871428Y-80342438D01*
X77871428Y-80342438D02*
X77919047Y-80390057D01*
X77919047Y-80390057D02*
X77966666Y-80485295D01*
X77966666Y-80485295D02*
X77966666Y-80628152D01*
X77966666Y-80628152D02*
X77919047Y-80723390D01*
X77919047Y-80723390D02*
X77871428Y-80771009D01*
X77871428Y-80771009D02*
X77776190Y-80818628D01*
X77776190Y-80818628D02*
X77395238Y-80818628D01*
X78395238Y-80771009D02*
X78728571Y-80771009D01*
X78871428Y-81294819D02*
X78395238Y-81294819D01*
X78395238Y-81294819D02*
X78395238Y-80294819D01*
X78395238Y-80294819D02*
X78871428Y-80294819D01*
X79633333Y-80771009D02*
X79300000Y-80771009D01*
X79300000Y-81294819D02*
X79300000Y-80294819D01*
X79300000Y-80294819D02*
X79776190Y-80294819D01*
X80300000Y-80294819D02*
X80300000Y-80532914D01*
X80061905Y-80437676D02*
X80300000Y-80532914D01*
X80300000Y-80532914D02*
X80538095Y-80437676D01*
X80157143Y-80723390D02*
X80300000Y-80532914D01*
X80300000Y-80532914D02*
X80442857Y-80723390D01*
X81061905Y-80294819D02*
X81061905Y-80532914D01*
X80823810Y-80437676D02*
X81061905Y-80532914D01*
X81061905Y-80532914D02*
X81300000Y-80437676D01*
X80919048Y-80723390D02*
X81061905Y-80532914D01*
X81061905Y-80532914D02*
X81204762Y-80723390D01*
X90086666Y-82944819D02*
X89753333Y-82468628D01*
X89515238Y-82944819D02*
X89515238Y-81944819D01*
X89515238Y-81944819D02*
X89896190Y-81944819D01*
X89896190Y-81944819D02*
X89991428Y-81992438D01*
X89991428Y-81992438D02*
X90039047Y-82040057D01*
X90039047Y-82040057D02*
X90086666Y-82135295D01*
X90086666Y-82135295D02*
X90086666Y-82278152D01*
X90086666Y-82278152D02*
X90039047Y-82373390D01*
X90039047Y-82373390D02*
X89991428Y-82421009D01*
X89991428Y-82421009D02*
X89896190Y-82468628D01*
X89896190Y-82468628D02*
X89515238Y-82468628D01*
X90515238Y-82421009D02*
X90848571Y-82421009D01*
X90991428Y-82944819D02*
X90515238Y-82944819D01*
X90515238Y-82944819D02*
X90515238Y-81944819D01*
X90515238Y-81944819D02*
X90991428Y-81944819D01*
X91753333Y-82421009D02*
X91420000Y-82421009D01*
X91420000Y-82944819D02*
X91420000Y-81944819D01*
X91420000Y-81944819D02*
X91896190Y-81944819D01*
X92420000Y-81944819D02*
X92420000Y-82182914D01*
X92181905Y-82087676D02*
X92420000Y-82182914D01*
X92420000Y-82182914D02*
X92658095Y-82087676D01*
X92277143Y-82373390D02*
X92420000Y-82182914D01*
X92420000Y-82182914D02*
X92562857Y-82373390D01*
X93181905Y-81944819D02*
X93181905Y-82182914D01*
X92943810Y-82087676D02*
X93181905Y-82182914D01*
X93181905Y-82182914D02*
X93420000Y-82087676D01*
X93039048Y-82373390D02*
X93181905Y-82182914D01*
X93181905Y-82182914D02*
X93324762Y-82373390D01*
D14*
%TO.C,REF\u002A\u002A*%
X66890000Y-79940000D02*
X66890000Y-86480000D01*
X66890000Y-86480000D02*
X67220000Y-86480000D01*
X67220000Y-79940000D02*
X66890000Y-79940000D01*
X69300000Y-79940000D02*
X69630000Y-79940000D01*
X69630000Y-79940000D02*
X69630000Y-86480000D01*
X69630000Y-86480000D02*
X69300000Y-86480000D01*
X61340000Y-84050000D02*
X61340000Y-90590000D01*
X61340000Y-90590000D02*
X61670000Y-90590000D01*
X61670000Y-84050000D02*
X61340000Y-84050000D01*
X63750000Y-84050000D02*
X64080000Y-84050000D01*
X64080000Y-84050000D02*
X64080000Y-90590000D01*
X64080000Y-90590000D02*
X63750000Y-90590000D01*
X58870000Y-92990000D02*
X58870000Y-99530000D01*
X58540000Y-92990000D02*
X58870000Y-92990000D01*
X56460000Y-92990000D02*
X56130000Y-92990000D01*
X56130000Y-92990000D02*
X56130000Y-99530000D01*
X58870000Y-99530000D02*
X58540000Y-99530000D01*
X56130000Y-99530000D02*
X56460000Y-99530000D01*
X119690000Y-119300000D02*
X122450000Y-119300000D01*
X119690000Y-114110000D02*
X119690000Y-119300000D01*
X119690000Y-114110000D02*
X122450000Y-114110000D01*
X122450000Y-114110000D02*
X122450000Y-119300000D01*
X119690000Y-112840000D02*
X119690000Y-111460000D01*
X119690000Y-111460000D02*
X121070000Y-111460000D01*
X112190000Y-119300000D02*
X114950000Y-119300000D01*
X112190000Y-114110000D02*
X112190000Y-119300000D01*
X112190000Y-114110000D02*
X114950000Y-114110000D01*
X114950000Y-114110000D02*
X114950000Y-119300000D01*
X112190000Y-112840000D02*
X112190000Y-111460000D01*
X112190000Y-111460000D02*
X113570000Y-111460000D01*
X88480000Y-106740000D02*
X109054000Y-106740000D01*
X88480000Y-123250000D02*
X88480000Y-106740000D01*
X109054000Y-106740000D02*
X109054000Y-123250000D01*
X109054000Y-123250000D02*
X88480000Y-123250000D01*
X92133832Y-120710000D02*
G75*
G02*
X89398168Y-120710000I-1367832J0D01*
G01*
X89398168Y-120710000D02*
G75*
G02*
X92133832Y-120710000I1367832J0D01*
G01*
X108135832Y-120710000D02*
G75*
G02*
X105400168Y-120710000I-1367832J0D01*
G01*
X105400168Y-120710000D02*
G75*
G02*
X108135832Y-120710000I1367832J0D01*
G01*
D15*
X118175119Y-72456929D02*
G75*
G02*
X117175119Y-73456929I-999695J-305D01*
G01*
X117175119Y-44956929D02*
G75*
G02*
X118175071Y-45956929I281J-999671D01*
G01*
X68730000Y-73456940D02*
G75*
G02*
X67675119Y-72456929I-321J1056048D01*
G01*
X67675119Y-45956929D02*
G75*
G02*
X68675119Y-44956919I999681J329D01*
G01*
D12*
X93762987Y-67166929D02*
X111725119Y-67166929D01*
X111725119Y-51404799D01*
X93762987Y-51404799D01*
X93762987Y-67166929D01*
D13*
X92675119Y-50316929D02*
X118175119Y-50316929D01*
X118175119Y-68316929D01*
X92675119Y-68316929D01*
X92675119Y-50316929D01*
D14*
X66480000Y-63583595D02*
X72380000Y-63583595D01*
X72380000Y-54806929D01*
X66480000Y-54806929D01*
X66480000Y-63583595D01*
D12*
X118175119Y-50316929D02*
X118175119Y-68316929D01*
D15*
X118175119Y-45956929D02*
X118175119Y-72456929D01*
D12*
X117575119Y-66616929D02*
X111725119Y-66616929D01*
X117575119Y-62216929D02*
X117575119Y-66616929D01*
X117575119Y-59816929D02*
X114775119Y-59816929D01*
X117575119Y-56616929D02*
X117575119Y-59816929D01*
X117575119Y-54216929D02*
X114775119Y-54216929D01*
X117575119Y-51316929D02*
X117575119Y-54216929D01*
D16*
X117425119Y-64416929D02*
X111875119Y-64416929D01*
D17*
X117375119Y-66416929D02*
X117375119Y-64466929D01*
X117375119Y-64466929D02*
X117375119Y-62416929D01*
X117375119Y-62416929D02*
X114575119Y-62416929D01*
X117375119Y-59566929D02*
X117375119Y-56866929D01*
X117375119Y-56866929D02*
X114625119Y-56866929D01*
X117375119Y-54066929D02*
X117375119Y-51516929D01*
X117375119Y-51516929D02*
X113475119Y-51516929D01*
D12*
X117175119Y-66216929D02*
X111775119Y-66216929D01*
X117175119Y-66216929D02*
X111775119Y-66216929D01*
X117175119Y-64616929D02*
X117175119Y-66216929D01*
X117175119Y-64216929D02*
X117175119Y-62616929D01*
X117175119Y-62616929D02*
X114375119Y-62616929D01*
X117175119Y-59416929D02*
X117175119Y-57016929D01*
X117175119Y-57016929D02*
X114375119Y-57016929D01*
X117175119Y-53816929D02*
X117175119Y-51716929D01*
X117175119Y-51716929D02*
X113375119Y-51716929D01*
X114775119Y-62216929D02*
X117575119Y-62216929D01*
X114775119Y-62216929D02*
X117575119Y-62216929D01*
X114775119Y-59816929D02*
X114775119Y-62216929D01*
X114775119Y-56616929D02*
X117575119Y-56616929D01*
X114775119Y-56616929D02*
X117575119Y-56616929D01*
X114775119Y-54216929D02*
X114775119Y-56616929D01*
D17*
X114675119Y-59566929D02*
X117375119Y-59566929D01*
X114625119Y-56866929D02*
X114625119Y-54066929D01*
X114625119Y-54066929D02*
X117375119Y-54066929D01*
X114575119Y-62416929D02*
X114575119Y-59666929D01*
D14*
X114575119Y-59666929D02*
X114675119Y-59566929D01*
D12*
X114375119Y-62616929D02*
X114375119Y-59416929D01*
X114375119Y-59416929D02*
X117175119Y-59416929D01*
X114375119Y-59416929D02*
X117175119Y-59416929D01*
X114375119Y-57016929D02*
X114375119Y-53816929D01*
X114375119Y-53816929D02*
X117175119Y-53816929D01*
X114375119Y-53816929D02*
X117175119Y-53816929D01*
X113375119Y-51716929D02*
X113375119Y-51316929D01*
X113375119Y-51316929D02*
X117575119Y-51316929D01*
X113375119Y-51316929D02*
X117575119Y-51316929D01*
D17*
X111875119Y-66416929D02*
X117475119Y-66416929D01*
D12*
X111725119Y-64616929D02*
X117175119Y-64616929D01*
X111725119Y-64216929D02*
X117175119Y-64216929D01*
X107182569Y-58694769D02*
X107154269Y-58805599D01*
X107182569Y-58162769D02*
X107182569Y-58694769D01*
X107182569Y-57630769D02*
X107154269Y-57741599D01*
X107182569Y-57519929D02*
X107182569Y-57630769D01*
X107182569Y-56987929D02*
X107012769Y-56987929D01*
X107182569Y-56189929D02*
X107182569Y-56987929D01*
X107182519Y-61226269D02*
X107154219Y-61359269D01*
X107182519Y-61137599D02*
X107182519Y-61226269D01*
X107182519Y-60206599D02*
X107154219Y-60361769D01*
X107182519Y-60162269D02*
X107182519Y-60206599D01*
X107154269Y-58805599D02*
X107069369Y-58894269D01*
X107154269Y-57741599D02*
X107069369Y-57830269D01*
X107154269Y-57431269D02*
X107182569Y-57519929D01*
X107154219Y-61359269D02*
X107097619Y-61447929D01*
X107154219Y-60982429D02*
X107182519Y-61137599D01*
X107154219Y-60361769D02*
X107097619Y-60450429D01*
X107154219Y-60007099D02*
X107182519Y-60162269D01*
X107097669Y-57342599D02*
X107154269Y-57431269D01*
X107097619Y-61447929D02*
X106984419Y-61536599D01*
X107097619Y-60893769D02*
X107154219Y-60982429D01*
X107097619Y-60450429D02*
X106984419Y-60539099D01*
X107097619Y-59918429D02*
X107154219Y-60007099D01*
X107069369Y-58894269D02*
X106956169Y-58960769D01*
X107069369Y-57830269D02*
X106956169Y-57896769D01*
X107041069Y-58716929D02*
X107041069Y-58295769D01*
X107041069Y-58295769D02*
X106616569Y-58295769D01*
X107041019Y-61204099D02*
X107041019Y-61115429D01*
X107041019Y-61115429D02*
X107012719Y-61004599D01*
X107041019Y-60228769D02*
X107041019Y-60140099D01*
X107041019Y-60140099D02*
X107012719Y-60029269D01*
X107012769Y-58783429D02*
X107041069Y-58716929D01*
X107012769Y-57652929D02*
X107012769Y-57519929D01*
X107012769Y-57519929D02*
X106984469Y-57453429D01*
X107012769Y-56987929D02*
X107012769Y-56322929D01*
X107012769Y-56322929D02*
X106644869Y-56322929D01*
X107012719Y-61314929D02*
X107041019Y-61204099D01*
X107012719Y-61004599D02*
X106956119Y-60938099D01*
X107012719Y-60339599D02*
X107041019Y-60228769D01*
X107012719Y-60029269D02*
X106956119Y-59962769D01*
X106984469Y-57719429D02*
X107012769Y-57652929D01*
X106984469Y-57453429D02*
X106927869Y-57386929D01*
X106984469Y-57253929D02*
X107097669Y-57342599D01*
X106984419Y-61536599D02*
X106871219Y-61558769D01*
X106984419Y-60805099D02*
X107097619Y-60893769D01*
X106984419Y-60539099D02*
X106871219Y-60561269D01*
X106984419Y-59829769D02*
X107097619Y-59918429D01*
X106956169Y-58960769D02*
X106871269Y-58982929D01*
X106956169Y-58827769D02*
X107012769Y-58783429D01*
X106956169Y-57896769D02*
X106871269Y-57918929D01*
X106956119Y-61381429D02*
X107012719Y-61314929D01*
X106956119Y-60938099D02*
X106871219Y-60893769D01*
X106956119Y-60406099D02*
X107012719Y-60339599D01*
X106956119Y-59962769D02*
X106871219Y-59918429D01*
X106927869Y-57763769D02*
X106984469Y-57719429D01*
X106927869Y-57386929D02*
X106842969Y-57364769D01*
X106871269Y-58982929D02*
X106758069Y-58982929D01*
X106871269Y-58849929D02*
X106956169Y-58827769D01*
X106871269Y-57918929D02*
X106871269Y-57785929D01*
X106871269Y-57785929D02*
X106927869Y-57763769D01*
X106871269Y-57231769D02*
X106984469Y-57253929D01*
X106871219Y-61558769D02*
X106814619Y-61558769D01*
X106871219Y-61425769D02*
X106956119Y-61381429D01*
X106871219Y-60893769D02*
X106871219Y-60782929D01*
X106871219Y-60782929D02*
X106984419Y-60805099D01*
X106871219Y-60561269D02*
X106814619Y-60561269D01*
X106871219Y-60450429D02*
X106956119Y-60406099D01*
X106871219Y-59918429D02*
X106871219Y-59807599D01*
X106871219Y-59807599D02*
X106984419Y-59829769D01*
X106842969Y-57364769D02*
X106786369Y-57364769D01*
X106814619Y-61558769D02*
X106701419Y-61536599D01*
X106814619Y-61425769D02*
X106871219Y-61425769D01*
X106814619Y-60561269D02*
X106701419Y-60539099D01*
X106814619Y-60450429D02*
X106871219Y-60450429D01*
X106786369Y-58849929D02*
X106871269Y-58849929D01*
X106786369Y-57364769D02*
X106701469Y-57386929D01*
X106758069Y-58982929D02*
X106673169Y-58960769D01*
X106758069Y-57231769D02*
X106871269Y-57231769D01*
X106701469Y-58827769D02*
X106786369Y-58849929D01*
X106701469Y-57386929D02*
X106644869Y-57453429D01*
X106701419Y-61536599D02*
X106616519Y-61492269D01*
X106701419Y-61381429D02*
X106814619Y-61425769D01*
X106701419Y-60539099D02*
X106616519Y-60494769D01*
X106701419Y-60406099D02*
X106814619Y-60450429D01*
X106673169Y-58960769D02*
X106559969Y-58894269D01*
X106644869Y-58783429D02*
X106701469Y-58827769D01*
X106644869Y-57453429D02*
X106616569Y-57519929D01*
X106644869Y-57253929D02*
X106758069Y-57231769D01*
X106644869Y-56899269D02*
X106475169Y-56899269D01*
X106644869Y-56322929D02*
X106644869Y-56899269D01*
X106644819Y-60361769D02*
X106701419Y-60406099D01*
X106616569Y-58716929D02*
X106644869Y-58783429D01*
X106616569Y-58295769D02*
X106616569Y-58716929D01*
X106616569Y-57652929D02*
X106588269Y-57763769D01*
X106616569Y-57519929D02*
X106616569Y-57652929D01*
X106616519Y-61492269D02*
X105994019Y-60938099D01*
X106616519Y-60494769D02*
X106531619Y-60406099D01*
X106588269Y-57763769D02*
X106531669Y-57852429D01*
X106588219Y-60228769D02*
X106644819Y-60361769D01*
X106588219Y-60140099D02*
X106588219Y-60228769D01*
X106559969Y-58894269D02*
X106475169Y-58805599D01*
X106531669Y-57852429D02*
X106418569Y-57941099D01*
X106531669Y-57342599D02*
X106644869Y-57253929D01*
X106531619Y-60406099D02*
X106475119Y-60516929D01*
X106475169Y-58805599D02*
X106446869Y-58694769D01*
X106475169Y-57431269D02*
X106531669Y-57342599D01*
X106475169Y-56899269D02*
X106475169Y-56322929D01*
X106475169Y-56322929D02*
X106022369Y-56322929D01*
X106475119Y-60516929D02*
X106390219Y-60561269D01*
X106475119Y-60228769D02*
X106475119Y-60140099D01*
X106475119Y-60140099D02*
X106588219Y-60140099D01*
X106475119Y-59472094D02*
X106333619Y-59472094D01*
X106475119Y-59161764D02*
X106475119Y-59472094D01*
X106446869Y-58694769D02*
X106446869Y-58295769D01*
X106446869Y-58295769D02*
X105852569Y-58295769D01*
X106446869Y-57652929D02*
X106446869Y-57519929D01*
X106446869Y-57519929D02*
X106475169Y-57431269D01*
X106446819Y-60361769D02*
X106475119Y-60228769D01*
X106418569Y-57941099D02*
X106305369Y-57985429D01*
X106418569Y-57741599D02*
X106446869Y-57652929D01*
X106390219Y-60561269D02*
X106277019Y-60583429D01*
X106390219Y-60428269D02*
X106446819Y-60361769D01*
X106361969Y-57808099D02*
X106418569Y-57741599D01*
X106333619Y-59472094D02*
X106333619Y-59161764D01*
X106333619Y-59161764D02*
X106475119Y-59161764D01*
X106305369Y-57985429D02*
X106163869Y-57985429D01*
X106277069Y-57852429D02*
X106361969Y-57808099D01*
X106277019Y-60583429D02*
X106163819Y-60583429D01*
X106277019Y-60472599D02*
X106390219Y-60428269D01*
X106220469Y-57298269D02*
X106135569Y-57320429D01*
X106220469Y-57165269D02*
X106220469Y-57298269D01*
X106192169Y-57852429D02*
X106277069Y-57852429D01*
X106163869Y-57985429D02*
X106050669Y-57941099D01*
X106163819Y-60583429D02*
X106078919Y-60561269D01*
X106163819Y-60472599D02*
X106277019Y-60472599D01*
X106163819Y-59896269D02*
X106107219Y-59918429D01*
X106163819Y-59785429D02*
X106163819Y-59896269D01*
X106135569Y-57320429D02*
X106050669Y-57386929D01*
X106107269Y-57808099D02*
X106192169Y-57852429D01*
X106107269Y-57187429D02*
X106220469Y-57165269D01*
X106107219Y-60450429D02*
X106163819Y-60472599D01*
X106107219Y-59918429D02*
X106050619Y-59962769D01*
X106078919Y-60561269D02*
X105994019Y-60516929D01*
X106078919Y-59807599D02*
X106163819Y-59785429D01*
X106050669Y-57941099D02*
X105937469Y-57852429D01*
X106050669Y-57741599D02*
X106107269Y-57808099D01*
X106050669Y-57386929D02*
X106022369Y-57475599D01*
X106050619Y-60406099D02*
X106107219Y-60450429D01*
X106050619Y-59962769D02*
X106022319Y-60007099D01*
X106022369Y-57652929D02*
X106050669Y-57741599D01*
X106022369Y-57475599D02*
X106022369Y-57652929D01*
X106022369Y-56987929D02*
X105852569Y-56987929D01*
X106022369Y-56322929D02*
X106022369Y-56987929D01*
X106022319Y-60361769D02*
X106050619Y-60406099D01*
X106022319Y-60007099D02*
X105994019Y-60117929D01*
X105994019Y-61558769D02*
X105852519Y-61558769D01*
X105994019Y-60938099D02*
X105994019Y-61558769D01*
X105994019Y-60760769D02*
X106701419Y-61381429D01*
X105994019Y-60516929D02*
X105937419Y-60450429D01*
X105994019Y-60250929D02*
X106022319Y-60361769D01*
X105994019Y-60117929D02*
X105994019Y-60250929D01*
X105994019Y-59851929D02*
X106078919Y-59807599D01*
X105965769Y-57253929D02*
X106107269Y-57187429D01*
X105937469Y-57852429D02*
X105880869Y-57763769D01*
X105937419Y-60450429D02*
X105880819Y-60361769D01*
X105937419Y-59918429D02*
X105994019Y-59851929D01*
X105880869Y-57763769D02*
X105852569Y-57652929D01*
X105880869Y-57364769D02*
X105965769Y-57253929D01*
X105880819Y-60361769D02*
X105852519Y-60273099D01*
X105880819Y-60007099D02*
X105937419Y-59918429D01*
X105852569Y-58295769D02*
X105852569Y-58162769D01*
X105852569Y-58162769D02*
X107182569Y-58162769D01*
X105852569Y-57652929D02*
X105852569Y-57475599D01*
X105852569Y-57475599D02*
X105880869Y-57364769D01*
X105852569Y-56987929D02*
X105852569Y-56189929D01*
X105852569Y-56189929D02*
X107182569Y-56189929D01*
X105852519Y-61558769D02*
X105852519Y-60760769D01*
X105852519Y-60760769D02*
X105994019Y-60760769D01*
X105852519Y-60273099D02*
X105852519Y-60095769D01*
X105852519Y-60095769D02*
X105880819Y-60007099D01*
D15*
X68675119Y-73456929D02*
X117175119Y-73456929D01*
X68675119Y-44956929D02*
X117175119Y-44956929D01*
X67675119Y-72456929D02*
X67675119Y-63583595D01*
X67675119Y-45956929D02*
X67675119Y-54806929D01*
X67670000Y-54830263D02*
X66480000Y-54830263D01*
X66480000Y-63583595D02*
X67620000Y-63583595D01*
X66480000Y-54830263D02*
X66480000Y-63583595D01*
D14*
X69590000Y-115540000D02*
G75*
G02*
X57390000Y-115540000I-6100000J0D01*
G01*
X57390000Y-115540000D02*
G75*
G02*
X69590000Y-115540000I6100000J0D01*
G01*
X82290000Y-120410000D02*
X82290000Y-118190000D01*
X76180000Y-120410000D02*
X82290000Y-120410000D01*
X76180000Y-120410000D02*
X76180000Y-118190000D01*
X76180000Y-118190000D02*
X82290000Y-118190000D01*
X75180000Y-120410000D02*
X74070000Y-120410000D01*
X74070000Y-120410000D02*
X74070000Y-119300000D01*
X53670000Y-56260000D02*
X53060000Y-56700000D01*
X53060000Y-55820000D01*
X53670000Y-56260000D01*
G36*
X53670000Y-56260000D02*
G01*
X53060000Y-56700000D01*
X53060000Y-55820000D01*
X53670000Y-56260000D01*
G37*
X63710000Y-64000000D02*
X53670000Y-64000000D01*
X63710000Y-53600000D02*
X63710000Y-64000000D01*
X63710000Y-53600000D02*
X53670000Y-53600000D01*
X60690000Y-53600000D02*
X60690000Y-64000000D01*
X55790000Y-53600000D02*
X55790000Y-64000000D01*
X54290000Y-53600000D02*
X54290000Y-64000000D01*
X53670000Y-56560000D02*
X53670000Y-64000000D01*
X53670000Y-53600000D02*
X53670000Y-55960000D01*
X77920000Y-81840000D02*
X79300000Y-81840000D01*
X77920000Y-83220000D02*
X77920000Y-81840000D01*
X77920000Y-84490000D02*
X77920000Y-99840000D01*
X77920000Y-84490000D02*
X80680000Y-84490000D01*
X77920000Y-99840000D02*
X80680000Y-99840000D01*
X80680000Y-84490000D02*
X80680000Y-99840000D01*
X90040000Y-83490000D02*
X91420000Y-83490000D01*
X90040000Y-84870000D02*
X90040000Y-83490000D01*
X90040000Y-86140000D02*
X90040000Y-93870000D01*
X90040000Y-86140000D02*
X92800000Y-86140000D01*
X90040000Y-93870000D02*
X92800000Y-93870000D01*
X92800000Y-86140000D02*
X92800000Y-93870000D01*
%TD*%
M02*
